<?xml version="1.0" encoding="UTF-8" standalone="no"?>
<svg
   xmlns:dc="http://purl.org/dc/elements/1.1/"
   xmlns:cc="http://creativecommons.org/ns#"
   xmlns:rdf="http://www.w3.org/1999/02/22-rdf-syntax-ns#"
   xmlns:svg="http://www.w3.org/2000/svg"
   xmlns="http://www.w3.org/2000/svg"
   xmlns:sodipodi="http://sodipodi.sourceforge.net/DTD/sodipodi-0.dtd"
   xmlns:inkscape="http://www.inkscape.org/namespaces/inkscape"
   version="1.0"
   width="38.000000pt"
   height="38.000000pt"
   viewBox="0 0 172.000000 172.000000"
   preserveAspectRatio="xMidYMid meet"
   id="svg5"
   sodipodi:docname="logo.svg"
   inkscape:version="1.0.2-2 (e86c870879, 2021-01-15)">
  <metadata
     id="metadata11">
    <rdf:RDF>
      <cc:Work
         rdf:about="">
        <dc:format>image/svg+xml</dc:format>
        <dc:type
           rdf:resource="http://purl.org/dc/dcmitype/StillImage" />
      </cc:Work>
    </rdf:RDF>
  </metadata>
  <defs
     id="defs9" />
  <sodipodi:namedview
     pagecolor="#ffffff"
     bordercolor="#666666"
     borderopacity="1"
     objecttolerance="10"
     gridtolerance="10"
     guidetolerance="10"
     inkscape:pageopacity="0"
     inkscape:pageshadow="2"
     inkscape:window-width="1920"
     inkscape:window-height="1017"
     id="namedview7"
     showgrid="false"
     inkscape:zoom="8.3881579"
     inkscape:cx="30.771254"
     inkscape:cy="35.997889"
     inkscape:window-x="1912"
     inkscape:window-y="-8"
     inkscape:window-maximized="1"
     inkscape:current-layer="svg5"
     inkscape:document-rotation="0" />
  <g
     id="layer101"
     fill="#999999"
     stroke="none"
     transform="matrix(0.02038626,0,0,0.02038841,4.3418059,4.681272)">
    <path
       d="M 3685,7994 C 3397,7965 3201,7932 2985,7875 2413,7726 1894,7458 1420,7065 1303,6968 1040,6706 938,6585 434,5983 126,5276 23,4485 -3,4284 -3,3716 23,3515 86,3033 213,2615 425,2195 627,1795 851,1487 1179,1160 1815,526 2606,141 3515,23 c 201,-26 769,-26 970,0 915,119 1703,504 2345,1147 642,641 1028,1431 1147,2345 26,201 26,769 0,970 -118,909 -503,1699 -1137,2336 -91,91 -208,201 -260,244 -610,504 -1281,800 -2055,906 -121,17 -214,21 -475,24 -179,1 -343,1 -365,-1 z M 2280,4885 v -575 h 710 710 v -535 -535 h 735 735 v -490 -490 h 840 c 462,0 840,-2 840,-5 0,-12 -121,-185 -206,-295 C 6530,1813 6228,1510 6080,1396 5560,993 4995,765 4335,689 c -142,-17 -548,-17 -690,0 -660,76 -1225,304 -1745,707 -148,114 -450,416 -564,564 -400,517 -635,1094 -707,1740 -19,163 -16,572 4,736 41,333 138,693 256,957 l 30,67 h 681 680 z"
       id="path2" />
  </g>
</svg>
