<svg xmlns="http://www.w3.org/2000/svg" height="333" preserveAspectRatio="none" style="width:1199px;height:333px;background:#fff" width="1199"><path d="M8.5 6h72A3.75 3.75 0 0 1 83 8.5l7 19.797h1099.5a2.5 2.5 0 0 1 2.5 2.5V200.5a2.5 2.5 0 0 1-2.5 2.5H8.5a2.5 2.5 0 0 1-2.5-2.5V8.5A2.5 2.5 0 0 1 8.5 6" fill="none" style="stroke:#000;stroke-width:1.5"/><path style="stroke:#000;stroke-width:1.5" d="M6 28.297h84"/><text font-family="sans-serif" font-size="14" font-weight="bold" textLength="71" x="10" y="20.995">Detector</text><path d="M771.5 227h37a3.75 3.75 0 0 1 2.5 2.5l7 19.797h84.5a2.5 2.5 0 0 1 2.5 2.5V323.5a2.5 2.5 0 0 1-2.5 2.5h-131a2.5 2.5 0 0 1-2.5-2.5v-94a2.5 2.5 0 0 1 2.5-2.5" fill="none" style="stroke:#000;stroke-width:1.5"/><path style="stroke:#000;stroke-width:1.5" d="M769 249.297h49"/><text font-family="sans-serif" font-size="14" font-weight="bold" textLength="36" x="773" y="241.995">Core</text><rect fill="#F1F1F1" height="96.891" rx="2.5" ry="2.5" style="stroke:#181818;stroke-width:.5" width="303" x="872.5" y="65.5"/><circle cx="934.25" cy="81.5" fill="#ADD1B2" style="stroke:#181818;stroke-width:1" r="11"/><path d="M936.594 77.172c-.938-.438-1.532-.578-2.407-.578-2.625 0-4.625 2.078-4.625 4.797v1.125c0 2.578 2.11 4.468 5 4.468 1.22 0 2.375-.296 3.125-.843.579-.407.907-.86.907-1.25a.864.864 0 0 0-.86-.844.831.831 0 0 0-.609.266c-.453.484-.453.484-.64.578-.423.265-1.11.39-1.876.39-2.047 0-3.343-1.094-3.343-2.797v-1.093c0-1.782 1.25-3.094 2.984-3.094.578 0 1.188.156 1.656.406.485.281.657.5.75.906.063.407.094.532.235.657.14.14.375.25.593.25a.92.92 0 0 0 .703-.36c.11-.156.141-.344.141-.765v-1.422c0-.438-.015-.563-.11-.719a.838.838 0 0 0-.734-.406c-.297 0-.5.094-.718.406l-.172-.078Z"/><text font-family="sans-serif" font-size="14" textLength="171" x="954.75" y="86.347">CharacterItemCollector</text><path style="stroke:#181818;stroke-width:.5" d="M873.5 97.5h301"/><path fill="none" style="stroke:#c82930;stroke-width:1" d="M880.5 108.148h6v6h-6z"/><text font-family="sans-serif" font-size="14" textLength="151" x="892.5" y="114.495">Character _character</text><path style="stroke:#181818;stroke-width:.5" d="M873.5 121.797h301"/><path fill="#F24D5C" style="stroke:#c82930;stroke-width:1" d="M880.5 132.445h6v6h-6z"/><text font-family="sans-serif" font-size="14" textLength="277" x="892.5" y="138.792">OnTriggerEnter2D(Collider2D collision)</text><path fill="#F24D5C" style="stroke:#c82930;stroke-width:1" d="M880.5 148.742h6v6h-6z"/><text font-family="sans-serif" font-size="14" textLength="153" x="892.5" y="155.089">TryPickup(Item item)</text><g><rect fill="#F1F1F1" height="145.781" rx="2.5" ry="2.5" style="stroke:#181818;stroke-width:.5" width="375" x="462.5" y="41"/><circle cx="572.75" cy="57" fill="#ADD1B2" style="stroke:#181818;stroke-width:1" r="11"/><path d="M575.094 52.672c-.938-.438-1.532-.578-2.407-.578-2.625 0-4.625 2.078-4.625 4.797v1.125c0 2.578 2.11 4.468 5 4.468 1.22 0 2.375-.297 3.125-.843.579-.407.907-.86.907-1.25a.864.864 0 0 0-.86-.844.831.831 0 0 0-.609.266c-.453.484-.453.484-.64.578-.423.265-1.11.39-1.876.39-2.047 0-3.343-1.093-3.343-2.797v-1.093c0-1.782 1.25-3.094 2.984-3.094.578 0 1.188.156 1.656.406.485.281.657.5.75.906.063.407.094.532.235.657.14.14.375.25.593.25a.92.92 0 0 0 .703-.36c.11-.156.141-.343.141-.765v-1.422c0-.438-.015-.563-.11-.719a.838.838 0 0 0-.734-.406c-.297 0-.5.093-.718.406l-.172-.078Z"/><text font-family="sans-serif" font-size="14" textLength="146" x="593.25" y="61.847">HidingSpotDetector</text><path style="stroke:#181818;stroke-width:.5" d="M463.5 73h373"/><path fill="none" style="stroke:#c82930;stroke-width:1" d="M470.5 83.648h6v6h-6z"/><text font-family="sans-serif" font-size="14" textLength="151" x="482.5" y="89.995">Character _character</text><path fill="none" style="stroke:#c82930;stroke-width:1" d="M470.5 99.945h6v6h-6z"/><text font-family="sans-serif" font-size="14" textLength="349" x="482.5" y="106.292">HidingSpotEventChannelSO _enteredHidingSpot</text><path fill="none" style="stroke:#c82930;stroke-width:1" d="M470.5 116.242h6v6h-6z"/><text font-family="sans-serif" font-size="14" textLength="337" x="482.5" y="122.589">HidingSpotEventChannelSO _exitedHidingSpot</text><path style="stroke:#181818;stroke-width:.5" d="M463.5 129.891h373"/><path fill="#F24D5C" style="stroke:#c82930;stroke-width:1" d="M470.5 140.539h6v6h-6z"/><text font-family="sans-serif" font-size="14" textLength="259" x="482.5" y="146.886">OnTriggerEnter2D(Collider2D other)</text><path fill="#F24D5C" style="stroke:#c82930;stroke-width:1" d="M470.5 156.836h6v6h-6z"/><text font-family="sans-serif" font-size="14" textLength="251" x="482.5" y="163.183">OnTriggerStay2D(Collider2D other)</text><path fill="#F24D5C" style="stroke:#c82930;stroke-width:1" d="M470.5 173.133h6v6h-6z"/><text font-family="sans-serif" font-size="14" textLength="247" x="482.5" y="179.48">OnTriggerExit2D(Collider2D other)</text></g><g><rect fill="#F1F1F1" height="96.891" rx="2.5" ry="2.5" style="stroke:#181818;stroke-width:.5" width="405" x="22.5" y="65.5"/><circle cx="160.75" cy="81.5" fill="#ADD1B2" style="stroke:#181818;stroke-width:1" r="11"/><path d="M163.094 77.172c-.938-.438-1.531-.578-2.406-.578-2.625 0-4.625 2.078-4.625 4.797v1.125c0 2.578 2.109 4.468 5 4.468 1.218 0 2.375-.296 3.125-.843.578-.407.906-.86.906-1.25a.864.864 0 0 0-.86-.844.831.831 0 0 0-.609.266c-.453.484-.453.484-.64.578-.423.265-1.11.39-1.876.39-2.047 0-3.343-1.094-3.343-2.797v-1.093c0-1.782 1.25-3.094 2.984-3.094.578 0 1.188.156 1.656.406.485.281.656.5.75.906.063.407.094.532.235.657.14.14.375.25.593.25a.92.92 0 0 0 .703-.36c.11-.156.141-.344.141-.765v-1.422c0-.438-.016-.563-.11-.719a.838.838 0 0 0-.734-.406c-.297 0-.5.094-.718.406l-.172-.078Z"/><text font-family="sans-serif" font-size="14" textLength="120" x="181.25" y="86.347">SurfaceDetector</text><path style="stroke:#181818;stroke-width:.5" d="M23.5 97.5h403"/><circle cx="33.5" cy="111.148" fill="none" style="stroke:#038048;stroke-width:1" r="3"/><text font-family="sans-serif" font-size="14" textLength="219" x="42.5" y="114.495">TileSurface CurrentTileSurface</text><path fill="none" style="stroke:#c82930;stroke-width:1" d="M30.5 124.445h6v6h-6z"/><text font-family="sans-serif" font-size="14" textLength="157" x="42.5" y="130.792">LayerMask _layerMask</text><path style="stroke:#181818;stroke-width:.5" d="M23.5 138.094h403"/><circle cx="33.5" cy="151.742" fill="#84BE84" style="stroke:#038048;stroke-width:1" r="3"/><text font-family="sans-serif" font-size="14" textLength="379" x="42.5" y="155.089">UpdateCurrentSurface(ISurfaceObservable observer)</text></g><g><rect fill="#F1F1F1" height="48" rx="2.5" ry="2.5" style="stroke:#181818;stroke-width:.5" width="103" x="785.5" y="262"/><circle cx="800.5" cy="278" fill="#ADD1B2" style="stroke:#181818;stroke-width:1" r="11"/><path d="M802.844 273.672c-.938-.438-1.532-.578-2.407-.578-2.625 0-4.625 2.078-4.625 4.797v1.125c0 2.578 2.11 4.468 5 4.468 1.22 0 2.375-.296 3.125-.843.579-.407.907-.86.907-1.25a.864.864 0 0 0-.86-.844.831.831 0 0 0-.609.265c-.453.485-.453.485-.64.579-.423.265-1.11.39-1.876.39-2.047 0-3.343-1.094-3.343-2.797v-1.093c0-1.782 1.25-3.094 2.984-3.094.578 0 1.188.156 1.656.406.485.281.657.5.75.906.063.407.094.532.235.657.14.14.375.25.593.25a.92.92 0 0 0 .703-.36c.11-.156.141-.344.141-.765v-1.422c0-.438-.015-.563-.11-.719a.838.838 0 0 0-.734-.406c-.297 0-.5.094-.718.406l-.172-.078Z"/><text font-family="sans-serif" font-size="14" textLength="71" x="814.5" y="282.847">Character</text><path style="stroke:#181818;stroke-width:.5" d="M786.5 294h101M786.5 302h101"/></g><g><path d="m971.412 162.807-105.016 95.469" fill="none" style="stroke:#181818;stroke-width:1"/><path fill="#181818" style="stroke:#181818;stroke-width:1" d="m862.364 261.942 9.35-3.094-5.65-.269.27-5.651-3.97 9.014z"/></g><g><path d="m729.305 187.095 78.262 71.148" fill="none" style="stroke:#181818;stroke-width:1"/><path fill="#181818" style="stroke:#181818;stroke-width:1" d="m811.403 261.73-3.969-9.014.269 5.651-5.65.269 9.35 3.094z"/></g></svg>