<svg xmlns="http://www.w3.org/2000/svg" height="835" preserveAspectRatio="none" style="width:5596px;height:835px;background:#fff" width="5596"><path d="M8.5 6h34A3.75 3.75 0 0 1 45 8.5l7 19.797h5328.5a2.5 2.5 0 0 1 2.5 2.5V825.5a2.5 2.5 0 0 1-2.5 2.5H8.5a2.5 2.5 0 0 1-2.5-2.5V8.5A2.5 2.5 0 0 1 8.5 6" fill="none" style="stroke:#000;stroke-width:1.5"/><path style="stroke:#000;stroke-width:1.5" d="M6 28.297h46"/><text font-family="sans-serif" font-size="14" font-weight="bold" textLength="33" x="10" y="20.995">FSM</text><path d="M1345.5 49h55a3.75 3.75 0 0 1 2.5 2.5l7 19.797h3946.5a2.5 2.5 0 0 1 2.5 2.5V801.5a2.5 2.5 0 0 1-2.5 2.5h-4011a2.5 2.5 0 0 1-2.5-2.5v-750a2.5 2.5 0 0 1 2.5-2.5" fill="none" style="stroke:#000;stroke-width:1.5"/><path style="stroke:#000;stroke-width:1.5" d="M1343 71.297h67"/><text font-family="sans-serif" font-size="14" font-weight="bold" textLength="54" x="1347" y="63.995">States</text><path d="M4103.5 171.5h97a3.75 3.75 0 0 1 2.5 2.5l7 19.797h1122.5a2.5 2.5 0 0 1 2.5 2.5V563.5a2.5 2.5 0 0 1-2.5 2.5h-1229a2.5 2.5 0 0 1-2.5-2.5V174a2.5 2.5 0 0 1 2.5-2.5" fill="none" style="stroke:#000;stroke-width:1.5"/><path style="stroke:#000;stroke-width:1.5" d="M4101 193.797h109"/><text font-family="sans-serif" font-size="14" font-weight="bold" textLength="96" x="4105" y="186.495">MoveStates</text><path d="M1912.5 106h108a3.75 3.75 0 0 1 2.5 2.5l7 19.797h2044.5a2.5 2.5 0 0 1 2.5 2.5V547a2.5 2.5 0 0 1-2.5 2.5h-2162a2.5 2.5 0 0 1-2.5-2.5V108.5a2.5 2.5 0 0 1 2.5-2.5" fill="none" style="stroke:#000;stroke-width:1.5"/><path style="stroke:#000;stroke-width:1.5" d="M1910 128.297h120"/><text font-family="sans-serif" font-size="14" font-weight="bold" textLength="107" x="1914" y="120.995">ActionStates</text><path d="M890.5 114.5h40a3.75 3.75 0 0 1 2.5 2.5l7 19.797h376.5a2.5 2.5 0 0 1 2.5 2.5V341a2.5 2.5 0 0 1-2.5 2.5h-426a2.5 2.5 0 0 1-2.5-2.5V117a2.5 2.5 0 0 1 2.5-2.5" fill="none" style="stroke:#000;stroke-width:1.5"/><path style="stroke:#000;stroke-width:1.5" d="M888 136.797h52"/><text font-family="sans-serif" font-size="14" font-weight="bold" textLength="39" x="892" y="129.495">Type</text><path d="M5409.5 450.5h37a3.75 3.75 0 0 1 2.5 2.5l7 19.797h130.5a2.5 2.5 0 0 1 2.5 2.5V736.5a2.5 2.5 0 0 1-2.5 2.5h-177a2.5 2.5 0 0 1-2.5-2.5V453a2.5 2.5 0 0 1 2.5-2.5" fill="none" style="stroke:#000;stroke-width:1.5"/><path style="stroke:#000;stroke-width:1.5" d="M5407 472.797h49"/><text font-family="sans-serif" font-size="14" font-weight="bold" textLength="36" x="5411" y="465.495">Core</text><rect fill="#F1F1F1" height="341.344" rx="2.5" ry="2.5" style="stroke:#181818;stroke-width:.5" width="380" x="22" y="68"/><circle cx="122.75" cy="84" fill="#ADD1B2" style="stroke:#181818;stroke-width:1" r="11"/><path d="M125.094 79.672c-.938-.438-1.531-.578-2.406-.578-2.626 0-4.626 2.078-4.626 4.797v1.125c0 2.578 2.11 4.468 5 4.468 1.22 0 2.376-.296 3.126-.843.578-.407.906-.86.906-1.25a.864.864 0 0 0-.86-.844.831.831 0 0 0-.609.266c-.453.484-.453.484-.64.578-.422.265-1.11.39-1.876.39-2.046 0-3.343-1.094-3.343-2.797v-1.093c0-1.782 1.25-3.094 2.984-3.094.578 0 1.188.156 1.656.406.485.281.656.5.75.906.063.407.094.532.235.657.14.14.375.25.593.25a.92.92 0 0 0 .704-.36c.109-.156.14-.344.14-.765v-1.422c0-.438-.016-.563-.11-.719a.838.838 0 0 0-.734-.406c-.296 0-.5.094-.718.406l-.172-.078Z"/><text font-family="sans-serif" font-size="14" textLength="170" x="143.25" y="88.847">CharacterStateMachine</text><path style="stroke:#181818;stroke-width:.5" d="M23 100h378"/><path fill="none" style="stroke:#c82930;stroke-width:1" d="M30 110.648h6v6h-6z"/><text font-family="sans-serif" font-size="14" textLength="268" x="42" y="116.995">CharacterStateFactory _stateFactory</text><path fill="none" style="stroke:#c82930;stroke-width:1" d="M30 126.945h6v6h-6z"/><text font-family="sans-serif" font-size="14" textLength="249" x="42" y="133.292">CharacterBaseState _currentState</text><circle cx="33" cy="146.242" fill="none" style="stroke:#038048;stroke-width:1" r="3"/><text font-family="sans-serif" font-size="14" textLength="268" x="42" y="149.589">Rigidbody2D Rigidbody2D «readonly»</text><circle cx="33" cy="162.539" fill="none" style="stroke:#038048;stroke-width:1" r="3"/><text font-family="sans-serif" font-size="14" textLength="233" x="42" y="165.886">CharacterInput Input «readonly»</text><circle cx="33" cy="178.836" fill="none" style="stroke:#038048;stroke-width:1" r="3"/><text font-family="sans-serif" font-size="14" textLength="228" x="42" y="182.183">Character Character «readonly»</text><circle cx="33" cy="195.133" fill="none" style="stroke:#038048;stroke-width:1" r="3"/><text font-family="sans-serif" font-size="14" textLength="249" x="42" y="198.48">CharacterStatus Status «readonly»</text><circle cx="33" cy="211.43" fill="none" style="stroke:#038048;stroke-width:1" r="3"/><text font-family="sans-serif" font-size="14" textLength="104" x="42" y="214.776">bool IsLogging</text><path style="stroke:#181818;stroke-width:.5" d="M23 222.078h378"/><path fill="#F24D5C" style="stroke:#c82930;stroke-width:1" d="M30 232.727h6v6h-6z"/><text font-family="sans-serif" font-size="14" textLength="165" x="42" y="239.073">InitializeStateFactory()</text><circle cx="33" cy="252.023" fill="#84BE84" style="stroke:#038048;stroke-width:1" r="3"/><text font-family="sans-serif" font-size="14" textLength="354" x="42" y="255.37">ChangeState(CharacterBaseState changedState)</text><path fill="#F24D5C" style="stroke:#c82930;stroke-width:1" d="M30 265.32h6v6h-6z"/><text font-family="sans-serif" font-size="14" textLength="317" x="42" y="271.667">InitializeStateMachine(Vector3 respawnPos)</text><path fill="#F24D5C" style="stroke:#c82930;stroke-width:1" d="M30 281.617h6v6h-6z"/><text font-family="sans-serif" font-size="14" textLength="79" x="42" y="287.964">OnAttack()</text><path fill="#F24D5C" style="stroke:#c82930;stroke-width:1" d="M30 297.914h6v6h-6z"/><text font-family="sans-serif" font-size="14" textLength="80" x="42" y="304.261">OnAiming()</text><path fill="#F24D5C" style="stroke:#c82930;stroke-width:1" d="M30 314.211h6v6h-6z"/><text font-family="sans-serif" font-size="14" textLength="108" x="42" y="320.558">OnThrowItem()</text><path fill="#F24D5C" style="stroke:#c82930;stroke-width:1" d="M30 330.508h6v6h-6z"/><text font-family="sans-serif" font-size="14" textLength="130" x="42" y="336.854">OnConsumeItem()</text><path fill="#F24D5C" style="stroke:#c82930;stroke-width:1" d="M30 346.805h6v6h-6z"/><text font-family="sans-serif" font-size="14" textLength="117" x="42" y="353.151">OnDiscardItem()</text><path fill="#F24D5C" style="stroke:#c82930;stroke-width:1" d="M30 363.102h6v6h-6z"/><text font-family="sans-serif" font-size="14" textLength="74" x="42" y="369.448">OnDeath()</text><path fill="#F24D5C" style="stroke:#c82930;stroke-width:1" d="M30 379.398h6v6h-6z"/><text font-family="sans-serif" font-size="14" textLength="195" x="42" y="385.745">OnActionAnimCompleted()</text><path fill="#F24D5C" style="stroke:#c82930;stroke-width:1" d="M30 395.695h6v6h-6z"/><text font-family="sans-serif" font-size="14" textLength="112" x="42" y="402.042">Log(string msg)</text><g><rect fill="#F1F1F1" height="48" rx="2.5" ry="2.5" style="stroke:#181818;stroke-width:.5" width="197" x="67.5" y="485.5"/><circle cx="82.5" cy="501.5" fill="#ADD1B2" style="stroke:#181818;stroke-width:1" r="11"/><path d="M84.844 497.172c-.938-.438-1.531-.578-2.406-.578-2.626 0-4.626 2.078-4.626 4.797v1.125c0 2.578 2.11 4.468 5 4.468 1.22 0 2.376-.296 3.126-.843.578-.407.906-.86.906-1.25a.864.864 0 0 0-.86-.844.831.831 0 0 0-.609.265c-.453.485-.453.485-.64.579-.422.265-1.11.39-1.876.39-2.046 0-3.343-1.094-3.343-2.797v-1.093c0-1.782 1.25-3.094 2.984-3.094.578 0 1.188.156 1.656.406.485.281.656.5.75.906.063.407.094.532.235.657.14.14.375.25.593.25a.92.92 0 0 0 .704-.36c.109-.156.14-.344.14-.765v-1.422c0-.438-.016-.563-.11-.719a.838.838 0 0 0-.734-.406c-.296 0-.5.094-.718.406l-.172-.078Z"/><text font-family="sans-serif" font-size="14" textLength="165" x="96.5" y="506.347">CharacterStateFactory</text><path style="stroke:#181818;stroke-width:.5" d="M68.5 517.5h195M68.5 525.5h195"/></g><g><rect fill="#F1F1F1" height="48" rx="2.5" ry="2.5" style="stroke:#181818;stroke-width:.5" width="177" x="299.5" y="485.5"/><circle cx="314.5" cy="501.5" fill="#ADD1B2" style="stroke:#181818;stroke-width:1" r="11"/><path d="M316.844 497.172c-.938-.438-1.531-.578-2.406-.578-2.625 0-4.625 2.078-4.625 4.797v1.125c0 2.578 2.109 4.468 5 4.468 1.218 0 2.375-.296 3.125-.843.578-.407.906-.86.906-1.25a.864.864 0 0 0-.86-.844.831.831 0 0 0-.609.265c-.453.485-.453.485-.64.579-.423.265-1.11.39-1.876.39-2.046 0-3.343-1.094-3.343-2.797v-1.093c0-1.782 1.25-3.094 2.984-3.094.578 0 1.188.156 1.656.406.485.281.656.5.75.906.063.407.094.532.235.657.14.14.375.25.593.25a.92.92 0 0 0 .704-.36c.109-.156.14-.344.14-.765v-1.422c0-.438-.015-.563-.11-.719a.838.838 0 0 0-.734-.406c-.296 0-.5.094-.718.406l-.172-.078Z"/><text font-family="sans-serif" font-size="14" textLength="145" x="328.5" y="506.347">CharacterBaseState</text><path style="stroke:#181818;stroke-width:.5" d="M300.5 517.5h175M300.5 525.5h175"/></g><path d="M437 180.5v16.133L146 209.93l291-5.297v16.133h432V190.5l-10-10H437" fill="#FEFFDD" style="stroke:#181818;stroke-width:.5"/><path d="M859 180.5v10h10l-10-10" fill="#FEFFDD" style="stroke:#181818;stroke-width:.5"/><text font-family="sans-serif" font-size="13" textLength="196" x="443" y="197.567">This member is for debugging.</text><text font-family="sans-serif" font-size="13" textLength="411" x="443" y="212.7">This member can active(inactive) state machine&apos;s log message.</text><path d="M437 230.766v23.699l-283 142.73 283-134.73v23.7h345v-45.4l-10-10H437" fill="#FEFFDD" style="stroke:#181818;stroke-width:.5"/><path d="M772 230.766v10h10l-10-10" fill="#FEFFDD" style="stroke:#181818;stroke-width:.5"/><text font-family="sans-serif" font-size="13" textLength="191" x="443" y="247.833">This method is for debugging.</text><text font-family="sans-serif" font-size="13" textLength="324" x="443" y="262.965">The state machine frequently outputs this method</text><text font-family="sans-serif" font-size="13" textLength="303" x="443" y="278.098">so I added this method to disable log message.</text><g><rect fill="#F1F1F1" height="178.375" rx="2.5" ry="2.5" style="stroke:#181818;stroke-width:.5" width="681" x="3488.5" y="610"/><circle cx="3753.25" cy="626" fill="#A9DCDF" style="stroke:#181818;stroke-width:1" r="11"/><path d="m3755.328 627.813.39.984h-.39c-.453 0-.562.015-.719.125a.872.872 0 0 0-.406.734c0 .266.14.516.36.672.14.125.343.172.765.172h2.36c.359 0 .578-.031.718-.125a.846.846 0 0 0 .407-.719.844.844 0 0 0-.36-.687c-.172-.14-.328-.172-.797-.172l-3.39-8.203h-3.672c-.453 0-.578.015-.735.11a.915.915 0 0 0-.406.734c0 .28.14.53.36.703.171.109.343.14.78.14h1.079l-2.64 6.516c-.423 0-.579.015-.735.125a.872.872 0 0 0-.406.734c0 .563.375.844 1.125.844h2.265c.36 0 .578-.031.703-.125.266-.14.407-.438.407-.719a.881.881 0 0 0-.344-.703c-.172-.125-.313-.156-.766-.156h-.39l.39-.985h4.047Zm-.703-1.704h-2.672l1.344-3.265 1.328 3.265Z"/><text font-family="sans-serif" font-size="14" font-style="italic" textLength="143" x="3773.75" y="630.847">CharacterBaseState</text><path style="stroke:#181818;stroke-width:.5" d="M3489.5 642h679"/><path fill="none" style="stroke:#b38d22;stroke-width:1" d="m3499.5 650.648 4 4-4 4-4-4z"/><text font-family="sans-serif" font-size="14" textLength="273" x="3508.5" y="658.995">CharacterStateMachine StateMachine</text><path fill="none" style="stroke:#b38d22;stroke-width:1" d="m3499.5 666.945 4 4-4 4-4-4z"/><text font-family="sans-serif" font-size="14" textLength="223" x="3508.5" y="675.292">CharacterStateFactory Factory</text><path style="stroke:#181818;stroke-width:.5" d="M3489.5 682.594h679"/><path fill="#FF4" style="stroke:#b38d22;stroke-width:1" d="m3499.5 691.242 4 4-4 4-4-4z"/><text font-family="sans-serif" font-size="14" textLength="655" x="3508.5" y="699.589">CharacterBaseState(CharacterStateMachine stateMachine, CharacterStateFactory factory)</text><circle cx="3499.5" cy="712.539" fill="#84BE84" style="stroke:#038048;stroke-width:1" r="3"/><text font-family="sans-serif" font-size="14" font-style="italic" textLength="85" x="3508.5" y="715.886">EnterState()</text><circle cx="3499.5" cy="728.836" fill="#84BE84" style="stroke:#038048;stroke-width:1" r="3"/><text font-family="sans-serif" font-size="14" font-style="italic" textLength="98" x="3508.5" y="732.183">UpdateState()</text><circle cx="3499.5" cy="745.133" fill="#84BE84" style="stroke:#038048;stroke-width:1" r="3"/><text font-family="sans-serif" font-size="14" font-style="italic" textLength="136" x="3508.5" y="748.48">FixedUpdateState()</text><circle cx="3499.5" cy="761.43" fill="#84BE84" style="stroke:#038048;stroke-width:1" r="3"/><text font-family="sans-serif" font-size="14" font-style="italic" textLength="73" x="3508.5" y="764.776">ExitState()</text><circle cx="3499.5" cy="777.727" fill="#84BE84" style="stroke:#038048;stroke-width:1" r="3"/><text font-family="sans-serif" font-size="14" font-style="italic" textLength="144" x="3508.5" y="781.073">CheckSwitchStates()</text></g><g><rect fill="#F1F1F1" height="308.75" rx="2.5" ry="2.5" style="stroke:#181818;stroke-width:.5" width="532" x="1359" y="84"/><circle cx="1538.25" cy="100" fill="#ADD1B2" style="stroke:#181818;stroke-width:1" r="11"/><path d="M1540.594 95.672c-.938-.438-1.532-.578-2.407-.578-2.624 0-4.624 2.078-4.624 4.797v1.125c0 2.578 2.109 4.468 5 4.468 1.218 0 2.374-.296 3.124-.843.579-.407.907-.86.907-1.25a.864.864 0 0 0-.86-.844.831.831 0 0 0-.609.266c-.453.484-.453.484-.64.578-.422.265-1.11.39-1.876.39-2.046 0-3.343-1.094-3.343-2.797v-1.093c0-1.782 1.25-3.094 2.984-3.094.578 0 1.188.156 1.656.406.485.281.657.5.75.906.063.407.094.532.235.657.14.14.375.25.593.25a.92.92 0 0 0 .704-.36c.109-.156.14-.344.14-.765v-1.422c0-.438-.015-.563-.11-.719a.838.838 0 0 0-.734-.406c-.296 0-.5.094-.718.406l-.172-.078Z"/><text font-family="sans-serif" font-size="14" textLength="165" x="1558.75" y="104.847">CharacterStateFactory</text><path style="stroke:#181818;stroke-width:.5" d="M1360 116h530"/><path fill="none" style="stroke:#c82930;stroke-width:1" d="M1367 126.648h6v6h-6z"/><text font-family="sans-serif" font-size="14" textLength="492" x="1379" y="132.995">Dictionary&lt;CharacterMoveType, CharacterBaseState&gt; _moveStates</text><path fill="none" style="stroke:#c82930;stroke-width:1" d="M1367 142.945h6v6h-6z"/><text font-family="sans-serif" font-size="14" textLength="506" x="1379" y="149.292">Dictionary&lt;CharacterActionType, CharacterBaseState&gt; _actionStates</text><path style="stroke:#181818;stroke-width:.5" d="M1360 156.594h530"/><circle cx="1370" cy="170.242" fill="#84BE84" style="stroke:#038048;stroke-width:1" r="3"/><text font-family="sans-serif" font-size="14" textLength="446" x="1379" y="173.589">CharacterStateFactory(CharacterStateMachine stateMachine)</text><text font-family="sans-serif" font-size="14" textLength="4" x="1379" y="189.886"> </text><circle cx="1370" cy="202.836" fill="#84BE84" style="stroke:#038048;stroke-width:1" r="3"/><text font-family="sans-serif" font-size="14" textLength="202" x="1379" y="206.183">CharacterBaseState Static()</text><circle cx="1370" cy="219.133" fill="#84BE84" style="stroke:#038048;stroke-width:1" r="3"/><text font-family="sans-serif" font-size="14" textLength="194" x="1379" y="222.48">CharacterBaseState Walk()</text><circle cx="1370" cy="235.43" fill="#84BE84" style="stroke:#038048;stroke-width:1" r="3"/><text font-family="sans-serif" font-size="14" textLength="186" x="1379" y="238.776">CharacterBaseState Run()</text><circle cx="1370" cy="251.727" fill="#84BE84" style="stroke:#038048;stroke-width:1" r="3"/><text font-family="sans-serif" font-size="14" textLength="203" x="1379" y="255.073">CharacterBaseState Sneak()</text><circle cx="1370" cy="268.023" fill="#84BE84" style="stroke:#038048;stroke-width:1" r="3"/><text font-family="sans-serif" font-size="14" textLength="246" x="1379" y="271.37">CharacterBaseState SneakStatic()</text><text font-family="sans-serif" font-size="14" textLength="4" x="1379" y="287.667"> </text><circle cx="1370" cy="300.617" fill="#84BE84" style="stroke:#038048;stroke-width:1" r="3"/><text font-family="sans-serif" font-size="14" textLength="237" x="1379" y="303.964">CharacterBaseState ThrowItem()</text><circle cx="1370" cy="316.914" fill="#84BE84" style="stroke:#038048;stroke-width:1" r="3"/><text font-family="sans-serif" font-size="14" textLength="259" x="1379" y="320.261">CharacterBaseState ConsumeItem()</text><circle cx="1370" cy="333.211" fill="#84BE84" style="stroke:#038048;stroke-width:1" r="3"/><text font-family="sans-serif" font-size="14" textLength="246" x="1379" y="336.558">CharacterBaseState DiscardItem()</text><circle cx="1370" cy="349.508" fill="#84BE84" style="stroke:#038048;stroke-width:1" r="3"/><text font-family="sans-serif" font-size="14" textLength="208" x="1379" y="352.854">CharacterBaseState Attack()</text><circle cx="1370" cy="365.805" fill="#84BE84" style="stroke:#038048;stroke-width:1" r="3"/><text font-family="sans-serif" font-size="14" textLength="203" x="1379" y="369.151">CharacterBaseState Death()</text><circle cx="1370" cy="382.102" fill="#84BE84" style="stroke:#038048;stroke-width:1" r="3"/><text font-family="sans-serif" font-size="14" textLength="226" x="1379" y="385.448">CharacterBaseState Spectate()</text></g><g><rect fill="#F1F1F1" height="80.594" rx="2.5" ry="2.5" style="stroke:#181818;stroke-width:.5" width="215" x="4425.5" y="469"/><circle cx="4457.15" cy="485" fill="#A9DCDF" style="stroke:#181818;stroke-width:1" r="11"/><path d="m4459.228 486.813.39.984h-.39c-.453 0-.562.015-.719.125a.872.872 0 0 0-.406.734c0 .266.14.516.36.672.14.125.343.172.765.172h2.36c.359 0 .578-.031.718-.125a.846.846 0 0 0 .407-.719.844.844 0 0 0-.36-.687c-.172-.14-.328-.172-.797-.172l-3.39-8.203h-3.672c-.453 0-.578.015-.735.11a.915.915 0 0 0-.406.733c0 .282.14.532.36.704.171.109.343.14.78.14h1.079l-2.64 6.516c-.423 0-.579.015-.735.125a.872.872 0 0 0-.406.734c0 .563.375.844 1.125.844h2.265c.36 0 .578-.031.703-.125.266-.14.407-.438.407-.719a.881.881 0 0 0-.344-.703c-.172-.125-.313-.156-.766-.156h-.39l.39-.985h4.047Zm-.703-1.704h-2.672l1.344-3.265 1.328 3.265Z"/><text font-family="sans-serif" font-size="14" font-style="italic" textLength="146" x="4474.85" y="489.847">CharacterMoveState</text><path style="stroke:#181818;stroke-width:.5" d="M4426.5 501h213"/><path fill="none" style="stroke:#c82930;stroke-width:1" d="M4433.5 511.648h6v6h-6z"/><text font-family="sans-serif" font-size="14" textLength="189" x="4445.5" y="517.995">Rigidbody2D _rigidbody2D</text><path style="stroke:#181818;stroke-width:.5" d="M4426.5 525.297h213"/><path fill="#FF4" style="stroke:#b38d22;stroke-width:1" d="m4436.5 533.945 4 4-4 4-4-4z"/><text font-family="sans-serif" font-size="14" textLength="172" x="4445.5" y="542.292">Move(float moveSpeed)</text></g><g><rect fill="#F1F1F1" height="64.297" rx="2.5" ry="2.5" style="stroke:#181818;stroke-width:.5" width="170" x="4553" y="206.5"/><circle cx="4568" cy="222.5" fill="#ADD1B2" style="stroke:#181818;stroke-width:1" r="11"/><path d="M4570.344 218.172c-.938-.438-1.532-.578-2.407-.578-2.624 0-4.624 2.078-4.624 4.797v1.125c0 2.578 2.109 4.468 5 4.468 1.218 0 2.374-.297 3.124-.843.579-.407.907-.86.907-1.25a.864.864 0 0 0-.86-.844.831.831 0 0 0-.609.266c-.453.484-.453.484-.64.578-.422.265-1.11.39-1.876.39-2.047 0-3.343-1.094-3.343-2.797v-1.093c0-1.782 1.25-3.094 2.984-3.094.578 0 1.188.156 1.656.406.485.281.657.5.75.906.063.407.094.532.235.657.14.14.375.25.593.25a.92.92 0 0 0 .703-.36c.11-.156.141-.344.141-.765v-1.422c0-.438-.016-.563-.11-.719a.838.838 0 0 0-.734-.406c-.297 0-.5.094-.718.406l-.172-.078Z"/><text font-family="sans-serif" font-size="14" textLength="138" x="4582" y="227.347">CharacterRunState</text><path style="stroke:#181818;stroke-width:.5" d="M4554 238.5h168"/><path fill="none" style="stroke:#c82930;stroke-width:1" d="M4561 249.148h6v6h-6z"/><text font-family="sans-serif" font-size="14" textLength="114" x="4573" y="255.495">float _runSpeed</text><path style="stroke:#181818;stroke-width:.5" d="M4554 262.797h168"/></g><g><rect fill="#F1F1F1" height="64.297" rx="2.5" ry="2.5" style="stroke:#181818;stroke-width:.5" width="178" x="4340" y="206.5"/><circle cx="4355" cy="222.5" fill="#ADD1B2" style="stroke:#181818;stroke-width:1" r="11"/><path d="M4357.344 218.172c-.938-.438-1.532-.578-2.407-.578-2.624 0-4.624 2.078-4.624 4.797v1.125c0 2.578 2.109 4.468 5 4.468 1.218 0 2.374-.297 3.124-.843.579-.407.907-.86.907-1.25a.864.864 0 0 0-.86-.844.831.831 0 0 0-.609.266c-.453.484-.453.484-.64.578-.422.265-1.11.39-1.876.39-2.047 0-3.343-1.094-3.343-2.797v-1.093c0-1.782 1.25-3.094 2.984-3.094.578 0 1.188.156 1.656.406.485.281.657.5.75.906.063.407.094.532.235.657.14.14.375.25.593.25a.92.92 0 0 0 .703-.36c.11-.156.141-.344.141-.765v-1.422c0-.438-.016-.563-.11-.719a.838.838 0 0 0-.734-.406c-.297 0-.5.094-.718.406l-.172-.078Z"/><text font-family="sans-serif" font-size="14" textLength="146" x="4369" y="227.347">CharacterWalkState</text><path style="stroke:#181818;stroke-width:.5" d="M4341 238.5h176"/><path fill="none" style="stroke:#c82930;stroke-width:1" d="M4348 249.148h6v6h-6z"/><text font-family="sans-serif" font-size="14" textLength="123" x="4360" y="255.495">float _walkSpeed</text><path style="stroke:#181818;stroke-width:.5" d="M4341 262.797h176"/></g><g><rect fill="#F1F1F1" height="64.297" rx="2.5" ry="2.5" style="stroke:#181818;stroke-width:.5" width="187" x="4117.5" y="206.5"/><circle cx="4132.5" cy="222.5" fill="#ADD1B2" style="stroke:#181818;stroke-width:1" r="11"/><path d="M4134.844 218.172c-.938-.438-1.532-.578-2.407-.578-2.624 0-4.624 2.078-4.624 4.797v1.125c0 2.578 2.109 4.468 5 4.468 1.218 0 2.374-.297 3.124-.843.579-.407.907-.86.907-1.25a.864.864 0 0 0-.86-.844.831.831 0 0 0-.609.266c-.453.484-.453.484-.64.578-.422.265-1.11.39-1.876.39-2.047 0-3.343-1.094-3.343-2.797v-1.093c0-1.782 1.25-3.094 2.984-3.094.578 0 1.188.156 1.656.406.485.281.657.5.75.906.063.407.094.532.235.657.14.14.375.25.593.25a.92.92 0 0 0 .703-.36c.11-.156.141-.344.141-.765v-1.422c0-.438-.016-.563-.11-.719a.838.838 0 0 0-.734-.406c-.297 0-.5.094-.718.406l-.172-.078Z"/><text font-family="sans-serif" font-size="14" textLength="155" x="4146.5" y="227.347">CharacterSneakState</text><path style="stroke:#181818;stroke-width:.5" d="M4118.5 238.5h185"/><path fill="none" style="stroke:#c82930;stroke-width:1" d="M4125.5 249.148h6v6h-6z"/><text font-family="sans-serif" font-size="14" textLength="133" x="4137.5" y="255.495">float _sneakSpeed</text><path style="stroke:#181818;stroke-width:.5" d="M4118.5 262.797h185"/></g><g><rect fill="#F1F1F1" height="64.297" rx="2.5" ry="2.5" style="stroke:#181818;stroke-width:.5" width="292" x="5027" y="206.5"/><circle cx="5069.9" cy="222.5" fill="#ADD1B2" style="stroke:#181818;stroke-width:1" r="11"/><path d="M5072.244 218.172c-.938-.438-1.532-.578-2.407-.578-2.625 0-4.625 2.078-4.625 4.797v1.125c0 2.578 2.11 4.468 5 4.468 1.22 0 2.375-.297 3.125-.843.579-.407.907-.86.907-1.25a.864.864 0 0 0-.86-.844.831.831 0 0 0-.609.266c-.453.484-.453.484-.64.578-.423.265-1.11.39-1.876.39-2.047 0-3.343-1.094-3.343-2.797v-1.093c0-1.782 1.25-3.094 2.984-3.094.578 0 1.188.156 1.656.406.485.281.657.5.75.906.063.407.094.532.235.657.14.14.375.25.593.25a.92.92 0 0 0 .703-.36c.11-.156.141-.344.141-.765v-1.422c0-.438-.016-.563-.11-.719a.838.838 0 0 0-.734-.406c-.297 0-.5.094-.718.406l-.172-.078Z"/><text font-family="sans-serif" font-size="14" textLength="198" x="5090.1" y="227.347">CharacterSneakStaticState</text><path style="stroke:#181818;stroke-width:.5" d="M5028 238.5h290"/><path fill="none" style="stroke:#c82930;stroke-width:1" d="M5035 249.148h6v6h-6z"/><text font-family="sans-serif" font-size="14" textLength="266" x="5047" y="255.495">float _enteredSneakStaticStateTime</text><path style="stroke:#181818;stroke-width:.5" d="M5028 262.797h290"/></g><g><rect fill="#F1F1F1" height="64.297" rx="2.5" ry="2.5" style="stroke:#181818;stroke-width:.5" width="234" x="4758" y="206.5"/><circle cx="4794.6" cy="222.5" fill="#ADD1B2" style="stroke:#181818;stroke-width:1" r="11"/><path d="M4796.944 218.172c-.938-.438-1.532-.578-2.407-.578-2.624 0-4.624 2.078-4.624 4.797v1.125c0 2.578 2.109 4.468 5 4.468 1.218 0 2.375-.297 3.125-.843.578-.407.906-.86.906-1.25a.864.864 0 0 0-.86-.844.831.831 0 0 0-.609.266c-.453.484-.453.484-.64.578-.422.265-1.11.39-1.876.39-2.046 0-3.343-1.094-3.343-2.797v-1.093c0-1.782 1.25-3.094 2.984-3.094.578 0 1.188.156 1.656.406.485.281.657.5.75.906.063.407.094.532.235.657.14.14.375.25.593.25a.92.92 0 0 0 .704-.36c.109-.156.14-.344.14-.765v-1.422c0-.438-.015-.563-.11-.719a.838.838 0 0 0-.734-.406c-.296 0-.5.094-.718.406l-.172-.078Z"/><text font-family="sans-serif" font-size="14" textLength="154" x="4813.4" y="227.347">CharacterStaticState</text><path style="stroke:#181818;stroke-width:.5" d="M4759 238.5h232"/><text font-family="sans-serif" font-size="14" textLength="222" x="4764" y="255.495">float _enteredStaticStateTime</text><path style="stroke:#181818;stroke-width:.5" d="M4759 262.797h232"/></g><g><rect fill="#F1F1F1" height="48" rx="2.5" ry="2.5" style="stroke:#181818;stroke-width:.5" width="190" x="3030" y="485.5"/><circle cx="3045" cy="501.5" fill="#ADD1B2" style="stroke:#181818;stroke-width:1" r="11"/><path d="M3047.344 497.172c-.938-.438-1.532-.578-2.407-.578-2.624 0-4.624 2.078-4.624 4.797v1.125c0 2.578 2.109 4.468 5 4.468 1.218 0 2.374-.296 3.124-.843.579-.407.907-.86.907-1.25a.864.864 0 0 0-.86-.844.831.831 0 0 0-.609.265c-.453.485-.453.485-.64.579-.423.265-1.11.39-1.876.39-2.046 0-3.343-1.094-3.343-2.797v-1.093c0-1.782 1.25-3.094 2.984-3.094.578 0 1.188.156 1.656.406.485.281.657.5.75.906.063.407.094.532.235.657.14.14.375.25.593.25a.92.92 0 0 0 .704-.36c.109-.156.14-.344.14-.765v-1.422c0-.438-.015-.563-.11-.719a.838.838 0 0 0-.734-.406c-.296 0-.5.094-.718.406l-.172-.078Z"/><text font-family="sans-serif" font-size="14" textLength="158" x="3059" y="506.347">CharacterActionState</text><path style="stroke:#181818;stroke-width:.5" d="M3031 517.5h188M3031 525.5h188"/></g><g><rect fill="#F1F1F1" height="194.672" rx="2.5" ry="2.5" style="stroke:#181818;stroke-width:.5" width="867" x="2691.5" y="141"/><circle cx="3040.75" cy="157" fill="#ADD1B2" style="stroke:#181818;stroke-width:1" r="11"/><path d="M3043.094 152.672c-.938-.438-1.532-.578-2.407-.578-2.624 0-4.624 2.078-4.624 4.797v1.125c0 2.578 2.109 4.468 5 4.468 1.218 0 2.374-.297 3.124-.843.579-.407.907-.86.907-1.25a.864.864 0 0 0-.86-.844.831.831 0 0 0-.609.266c-.453.484-.453.484-.64.578-.423.265-1.11.39-1.876.39-2.046 0-3.343-1.094-3.343-2.797v-1.093c0-1.782 1.25-3.094 2.984-3.094.578 0 1.188.156 1.656.406.485.281.657.5.75.906.063.407.094.532.235.657.14.14.375.25.593.25a.92.92 0 0 0 .704-.36c.109-.156.14-.344.14-.765v-1.422c0-.438-.015-.563-.11-.719a.838.838 0 0 0-.734-.406c-.296 0-.5.094-.718.406l-.172-.078Z"/><text font-family="sans-serif" font-size="14" textLength="160" x="3061.25" y="161.847">CharacterAttackState</text><path style="stroke:#181818;stroke-width:.5" d="M2692.5 173h865"/><path fill="none" style="stroke:#c82930;stroke-width:1" d="M2699.5 183.648h6v6h-6z"/><text font-family="sans-serif" font-size="14" textLength="151" x="2711.5" y="189.995">Character _character</text><path style="stroke:#181818;stroke-width:.5" d="M2692.5 197.297h865"/><path fill="#F24D5C" style="stroke:#c82930;stroke-width:1" d="M2699.5 207.945h6v6h-6z"/><text font-family="sans-serif" font-size="14" textLength="411" x="2711.5" y="214.292">bool HasLineOfSight(Vector3 origin, Vector3 destination)</text><path fill="#F24D5C" style="stroke:#c82930;stroke-width:1" d="M2699.5 224.242h6v6h-6z"/><text font-family="sans-serif" font-size="14" textLength="841" x="2711.5" y="230.589">T GetClosestTransform&lt;T&gt;(Vector3 originPos, List&lt;T&gt; others, bool requireLineOfSight = true) where T : Component</text><path fill="#F24D5C" style="stroke:#c82930;stroke-width:1" d="M2699.5 240.539h6v6h-6z"/><text font-family="sans-serif" font-size="14" textLength="148" x="2711.5" y="246.886">AttackTrapObjects()</text><path fill="#F24D5C" style="stroke:#c82930;stroke-width:1" d="M2699.5 256.836h6v6h-6z"/><text font-family="sans-serif" font-size="14" textLength="152" x="2711.5" y="263.183">AttackOtherPlayers()</text><path fill="#F24D5C" style="stroke:#c82930;stroke-width:1" d="M2699.5 273.133h6v6h-6z"/><text font-family="sans-serif" font-size="14" textLength="725" x="2711.5" y="279.479">List&lt;T&gt; GetDamageableObjectsInAttackRange&lt;T&gt;(Vector3 attackPoint, Func&lt;T, bool&gt; filter = null)</text><path fill="#F24D5C" style="stroke:#c82930;stroke-width:1" d="M2699.5 289.43h6v6h-6z"/><text font-family="sans-serif" font-size="14" textLength="801" x="2711.5" y="295.776">float GetMeleeDamage(CharacterDirectionState myCharacterDir, CharacterDirectionState targetCharacterDir)</text><path fill="#F24D5C" style="stroke:#c82930;stroke-width:1" d="M2699.5 305.727h6v6h-6z"/><text font-family="sans-serif" font-size="14" textLength="186" x="2711.5" y="312.073">Vector3 GetAttackPoint()</text><path fill="#F24D5C" style="stroke:#c82930;stroke-width:1" d="M2699.5 322.023h6v6h-6z"/><text font-family="sans-serif" font-size="14" textLength="709" x="2711.5" y="328.37">Vector2 GetAttackDirectionVector2(CharacterDirectionState myCharacterLookDir, float distance)</text></g><g><rect fill="#F1F1F1" height="48" rx="2.5" ry="2.5" style="stroke:#181818;stroke-width:.5" width="243" x="2413.5" y="214.5"/><circle cx="2428.5" cy="230.5" fill="#ADD1B2" style="stroke:#181818;stroke-width:1" r="11"/><path d="M2430.844 226.172c-.938-.438-1.532-.578-2.407-.578-2.624 0-4.624 2.078-4.624 4.797v1.125c0 2.578 2.109 4.468 5 4.468 1.218 0 2.374-.297 3.124-.843.579-.407.907-.86.907-1.25a.864.864 0 0 0-.86-.844.831.831 0 0 0-.609.266c-.453.484-.453.484-.64.578-.423.265-1.11.39-1.876.39-2.046 0-3.343-1.094-3.343-2.797v-1.093c0-1.782 1.25-3.094 2.984-3.094.578 0 1.188.156 1.656.406.485.281.657.5.75.906.063.407.094.532.235.657.14.14.375.25.593.25a.92.92 0 0 0 .704-.36c.109-.156.14-.344.14-.765v-1.422c0-.438-.015-.563-.11-.719a.838.838 0 0 0-.734-.406c-.296 0-.5.094-.718.406l-.172-.078Z"/><text font-family="sans-serif" font-size="14" textLength="211" x="2442.5" y="235.347">CharacterConsumeItemState</text><path style="stroke:#181818;stroke-width:.5" d="M2414.5 246.5h241M2414.5 254.5h241"/></g><g><rect fill="#F1F1F1" height="48" rx="2.5" ry="2.5" style="stroke:#181818;stroke-width:.5" width="187" x="2191.5" y="214.5"/><circle cx="2206.5" cy="230.5" fill="#ADD1B2" style="stroke:#181818;stroke-width:1" r="11"/><path d="M2208.844 226.172c-.938-.438-1.532-.578-2.407-.578-2.624 0-4.624 2.078-4.624 4.797v1.125c0 2.578 2.109 4.468 5 4.468 1.218 0 2.374-.297 3.124-.843.579-.407.907-.86.907-1.25a.864.864 0 0 0-.86-.844.831.831 0 0 0-.609.266c-.453.484-.453.484-.64.578-.423.265-1.11.39-1.876.39-2.046 0-3.343-1.094-3.343-2.797v-1.093c0-1.782 1.25-3.094 2.984-3.094.578 0 1.188.156 1.656.406.485.281.657.5.75.906.063.407.094.532.235.657.14.14.375.25.593.25a.92.92 0 0 0 .704-.36c.109-.156.14-.344.14-.765v-1.422c0-.438-.015-.563-.11-.719a.838.838 0 0 0-.734-.406c-.296 0-.5.094-.718.406l-.172-.078Z"/><text font-family="sans-serif" font-size="14" textLength="155" x="2220.5" y="235.347">CharacterDeathState</text><path style="stroke:#181818;stroke-width:.5" d="M2192.5 246.5h185M2192.5 254.5h185"/></g><g><rect fill="#F1F1F1" height="48" rx="2.5" ry="2.5" style="stroke:#181818;stroke-width:.5" width="230" x="1926" y="214.5"/><circle cx="1941" cy="230.5" fill="#ADD1B2" style="stroke:#181818;stroke-width:1" r="11"/><path d="M1943.344 226.172c-.938-.438-1.532-.578-2.407-.578-2.624 0-4.624 2.078-4.624 4.797v1.125c0 2.578 2.109 4.468 5 4.468 1.218 0 2.374-.297 3.124-.843.579-.407.907-.86.907-1.25a.864.864 0 0 0-.86-.844.831.831 0 0 0-.609.266c-.453.484-.453.484-.64.578-.422.265-1.11.39-1.876.39-2.046 0-3.343-1.094-3.343-2.797v-1.093c0-1.782 1.25-3.094 2.984-3.094.578 0 1.188.156 1.656.406.485.281.657.5.75.906.063.407.094.532.235.657.14.14.375.25.593.25a.92.92 0 0 0 .704-.36c.109-.156.14-.344.14-.765v-1.422c0-.438-.015-.563-.11-.719a.838.838 0 0 0-.734-.406c-.296 0-.5.094-.718.406l-.172-.078Z"/><text font-family="sans-serif" font-size="14" textLength="198" x="1955" y="235.347">CharacterDiscardItemState</text><path style="stroke:#181818;stroke-width:.5" d="M1927 246.5h228M1927 254.5h228"/></g><g><rect fill="#F1F1F1" height="48" rx="2.5" ry="2.5" style="stroke:#181818;stroke-width:.5" width="221" x="3839.5" y="214.5"/><circle cx="3854.5" cy="230.5" fill="#ADD1B2" style="stroke:#181818;stroke-width:1" r="11"/><path d="M3856.844 226.172c-.938-.438-1.532-.578-2.407-.578-2.624 0-4.624 2.078-4.624 4.797v1.125c0 2.578 2.109 4.468 5 4.468 1.218 0 2.374-.297 3.124-.843.579-.407.907-.86.907-1.25a.864.864 0 0 0-.86-.844.831.831 0 0 0-.609.266c-.453.484-.453.484-.64.578-.423.265-1.11.39-1.876.39-2.046 0-3.343-1.094-3.343-2.797v-1.093c0-1.782 1.25-3.094 2.984-3.094.578 0 1.188.156 1.656.406.485.281.657.5.75.906.063.407.094.532.235.657.14.14.375.25.593.25a.92.92 0 0 0 .704-.36c.109-.156.14-.344.14-.765v-1.422c0-.438-.015-.563-.11-.719a.838.838 0 0 0-.734-.406c-.296 0-.5.094-.718.406l-.172-.078Z"/><text font-family="sans-serif" font-size="14" textLength="189" x="3868.5" y="235.347">CharacterThrowItemState</text><path style="stroke:#181818;stroke-width:.5" d="M3840.5 246.5h219M3840.5 254.5h219"/></g><g><rect fill="#F1F1F1" height="48" rx="2.5" ry="2.5" style="stroke:#181818;stroke-width:.5" width="210" x="3594" y="214.5"/><circle cx="3609" cy="230.5" fill="#ADD1B2" style="stroke:#181818;stroke-width:1" r="11"/><path d="M3611.344 226.172c-.938-.438-1.532-.578-2.407-.578-2.624 0-4.624 2.078-4.624 4.797v1.125c0 2.578 2.109 4.468 5 4.468 1.218 0 2.374-.297 3.124-.843.579-.407.907-.86.907-1.25a.864.864 0 0 0-.86-.844.831.831 0 0 0-.609.266c-.453.484-.453.484-.64.578-.423.265-1.11.39-1.876.39-2.046 0-3.343-1.094-3.343-2.797v-1.093c0-1.782 1.25-3.094 2.984-3.094.578 0 1.188.156 1.656.406.485.281.657.5.75.906.063.407.094.532.235.657.14.14.375.25.593.25a.92.92 0 0 0 .704-.36c.109-.156.14-.344.14-.765v-1.422c0-.438-.015-.563-.11-.719a.838.838 0 0 0-.734-.406c-.296 0-.5.094-.718.406l-.172-.078Z"/><text font-family="sans-serif" font-size="14" textLength="178" x="3623" y="235.347">CharacterSpectateState</text><path style="stroke:#181818;stroke-width:.5" d="M3595 246.5h208M3595 254.5h208"/></g><g><rect fill="#F1F1F1" height="162.078" rx="2.5" ry="2.5" style="stroke:#181818;stroke-width:.5" width="177" x="1125.5" y="157.5"/><circle cx="1140.5" cy="173.5" fill="#EB937F" style="stroke:#181818;stroke-width:1" r="11"/><path d="M1139.297 174.375h1.453v.11c0 .406.031.562.11.718.156.25.437.406.734.406a.86.86 0 0 0 .672-.359c.125-.156.156-.313.156-.766v-1.922c0-.156 0-.203-.016-.359-.062-.469-.375-.781-.828-.781-.25 0-.515.14-.687.36-.11.171-.141.327-.141.78v.125h-1.453v-2.406h3.984v.86c0 .406.032.578.11.734.171.25.453.406.734.406a.92.92 0 0 0 .703-.36c.11-.171.14-.312.14-.78v-2.547h-7.624c-.438 0-.563.015-.719.11a.893.893 0 0 0-.406.733c0 .282.14.532.36.704.155.109.343.14.765.14h.25v6.516h-.25c-.407 0-.563.016-.719.125a.893.893 0 0 0-.406.734c0 .266.14.516.36.672.14.125.374.172.765.172h8v-2.578c0-.438-.032-.578-.11-.734a.915.915 0 0 0-.734-.407.833.833 0 0 0-.703.36c-.11.156-.14.297-.14.78v.876h-4.36v-2.422Z"/><text font-family="sans-serif" font-size="14" textLength="145" x="1154.5" y="178.347">CharacterMoveType</text><path style="stroke:#181818;stroke-width:.5" d="M1126.5 189.5h175"/><text font-family="sans-serif" font-size="14" textLength="37" x="1131.5" y="206.495">None</text><text font-family="sans-serif" font-size="14" textLength="43" x="1131.5" y="222.792">Static</text><text font-family="sans-serif" font-size="14" textLength="35" x="1131.5" y="239.089">Walk</text><text font-family="sans-serif" font-size="14" textLength="27" x="1131.5" y="255.386">Run</text><text font-family="sans-serif" font-size="14" textLength="44" x="1131.5" y="271.683">Sneak</text><text font-family="sans-serif" font-size="14" textLength="87" x="1131.5" y="287.979">SneakStatic</text><text font-family="sans-serif" font-size="14" textLength="27" x="1131.5" y="304.276">End</text><path style="stroke:#181818;stroke-width:.5" d="M1126.5 311.578h175"/></g><g><rect fill="#F1F1F1" height="178.375" rx="2.5" ry="2.5" style="stroke:#181818;stroke-width:.5" width="186" x="904" y="149.5"/><circle cx="919" cy="165.5" fill="#EB937F" style="stroke:#181818;stroke-width:1" r="11"/><path d="M917.797 166.375h1.453v.11c0 .406.031.562.11.718.156.25.437.406.734.406a.86.86 0 0 0 .672-.359c.125-.156.156-.313.156-.766v-1.922c0-.156 0-.203-.016-.359-.062-.469-.375-.781-.828-.781-.25 0-.515.14-.687.36-.11.171-.141.327-.141.78v.125h-1.453v-2.406h3.984v.86c0 .406.032.578.11.734.172.25.453.406.734.406a.92.92 0 0 0 .703-.36c.11-.171.14-.312.14-.78v-2.547h-7.624c-.438 0-.563.015-.719.11a.893.893 0 0 0-.406.733c0 .282.14.532.36.704.155.109.343.14.765.14h.25v6.516h-.25c-.407 0-.563.016-.719.125a.893.893 0 0 0-.406.734c0 .266.14.516.36.672.14.125.374.172.765.172h8v-2.578c0-.438-.032-.578-.11-.734a.915.915 0 0 0-.734-.407.833.833 0 0 0-.703.36c-.11.156-.14.297-.14.78v.876h-4.36v-2.422Z"/><text font-family="sans-serif" font-size="14" textLength="154" x="933" y="170.347">CharacterActionType</text><path style="stroke:#181818;stroke-width:.5" d="M905 181.5h184"/><text font-family="sans-serif" font-size="14" textLength="37" x="910" y="198.495">None</text><text font-family="sans-serif" font-size="14" textLength="78" x="910" y="214.792">ThrowItem</text><text font-family="sans-serif" font-size="14" textLength="100" x="910" y="231.089">ConsumeItem</text><text font-family="sans-serif" font-size="14" textLength="87" x="910" y="247.386">DiscardItem</text><text font-family="sans-serif" font-size="14" textLength="49" x="910" y="263.683">Attack</text><text font-family="sans-serif" font-size="14" textLength="44" x="910" y="279.979">Death</text><text font-family="sans-serif" font-size="14" textLength="67" x="910" y="296.276">Spectate</text><text font-family="sans-serif" font-size="14" textLength="27" x="910" y="312.573">End</text><path style="stroke:#181818;stroke-width:.5" d="M905 319.875h184"/></g><g><rect fill="#F1F1F1" height="48" rx="2.5" ry="2.5" style="stroke:#181818;stroke-width:.5" width="103" x="5434.5" y="485.5"/><circle cx="5449.5" cy="501.5" fill="#ADD1B2" style="stroke:#181818;stroke-width:1" r="11"/><path d="M5451.844 497.172c-.938-.438-1.532-.578-2.407-.578-2.624 0-4.624 2.078-4.624 4.797v1.125c0 2.578 2.109 4.468 5 4.468 1.218 0 2.374-.296 3.124-.843.579-.407.907-.86.907-1.25a.864.864 0 0 0-.86-.844.831.831 0 0 0-.609.265c-.453.485-.453.485-.64.579-.422.265-1.11.39-1.876.39-2.047 0-3.343-1.094-3.343-2.797v-1.093c0-1.782 1.25-3.094 2.984-3.094.578 0 1.188.156 1.656.406.485.281.657.5.75.906.063.407.094.532.235.657.14.14.375.25.593.25a.92.92 0 0 0 .703-.36c.11-.156.141-.344.141-.765v-1.422c0-.438-.016-.563-.11-.719a.838.838 0 0 0-.734-.406c-.297 0-.5.094-.718.406l-.172-.078Z"/><text font-family="sans-serif" font-size="14" textLength="71" x="5463.5" y="506.347">Character</text><path style="stroke:#181818;stroke-width:.5" d="M5435.5 517.5h101M5435.5 525.5h101"/></g><g><rect fill="#F1F1F1" height="48" rx="2.5" ry="2.5" style="stroke:#181818;stroke-width:.5" width="149" x="5423.5" y="675"/><circle cx="5438.5" cy="691" fill="#ADD1B2" style="stroke:#181818;stroke-width:1" r="11"/><path d="M5440.844 686.672c-.938-.438-1.532-.578-2.407-.578-2.624 0-4.624 2.078-4.624 4.797v1.125c0 2.578 2.109 4.468 5 4.468 1.218 0 2.374-.297 3.124-.843.579-.407.907-.86.907-1.25a.864.864 0 0 0-.86-.844.831.831 0 0 0-.609.265c-.453.485-.453.485-.64.579-.422.265-1.11.39-1.876.39-2.047 0-3.343-1.093-3.343-2.797v-1.093c0-1.782 1.25-3.094 2.984-3.094.578 0 1.188.156 1.656.406.485.281.657.5.75.906.063.407.094.532.235.657.14.14.375.25.593.25a.92.92 0 0 0 .703-.36c.11-.156.141-.343.141-.765v-1.422c0-.438-.016-.563-.11-.719a.838.838 0 0 0-.734-.406c-.297 0-.5.093-.718.406l-.172-.078Z"/><text font-family="sans-serif" font-size="14" textLength="117" x="5452.5" y="695.847">CharacterStatus</text><path style="stroke:#181818;stroke-width:.5" d="M5424.5 707h147M5424.5 715h147"/></g><g><path d="M402.101 402.191A255.147 255.147 0 0 0 419 409c128.444 46.372 4782.43 5.108 4916 33.5 37.32 7.933 76.74 25.513 105.94 40.535" fill="none" style="stroke:#181818;stroke-width:1"/><path fill="#181818" style="stroke:#181818;stroke-width:1" d="m5445.54 485.422-6.149-7.693 1.71 5.392-5.392 1.711 9.831.59z"/></g><g><path d="M5487.5 533.868c2.2 34.433 6.31 98.717 8.69 135.793" fill="none" style="stroke:#181818;stroke-width:1"/><path fill="#181818" style="stroke:#181818;stroke-width:1" d="m5496.52 674.927 3.415-9.238-3.735 4.248-4.248-3.735 4.568 8.725z"/></g><g><path d="m182.998 409.099-12.204 71.368" fill="none" style="stroke:#181818;stroke-width:1"/><path fill="#181818" style="stroke:#181818;stroke-width:1" d="m169.947 485.42 5.46-8.197-4.617 3.269-3.269-4.617 2.426 9.545z"/></g><g><path d="m322.964 409.099 47 71.835" fill="none" style="stroke:#181818;stroke-width:1"/><path fill="#181818" style="stroke:#181818;stroke-width:1" d="m372.899 485.42-1.579-9.721-1.158 5.537-5.537-1.158 8.274 5.342z"/></g><g fill="none"><path d="M4425.31 539.181c-66.72 17.772-156.56 41.699-246.23 65.581M4180.78 611.553l-21.13-1.617 17.53-11.912 3.6 13.529z" style="stroke:#181818;stroke-width:1"/></g><g fill="none"><path d="M4625.85 270.621c-17.1 43.822-48.6 124.513-70.12 179.654M4562.23 452.879l-13.8 16.086.75-21.177 13.05 5.091z" style="stroke:#181818;stroke-width:1"/></g><g fill="none"><path d="M4441.03 270.621c16.94 43.822 48.14 124.513 69.46 179.654M4517.03 447.786l.68 21.179-13.74-16.131 13.06-5.048z" style="stroke:#181818;stroke-width:1"/></g><g fill="none"><path d="M4224.89 270.748c17.85 37.14 51.99 99.01 97.11 138.252 24.8 21.57 55.08 39.463 84.88 53.844M4410.08 456.613l15.23 14.732-21.09-2.019 5.86-12.713z" style="stroke:#181818;stroke-width:1"/></g><g fill="none"><path d="M5152.02 270.611c-27.9 38.8-80.99 104.181-143.02 138.389-108.07 59.597-247.92 83.575-348.03 93.18M4661.42 509.169l-20.55-5.201 19.31-8.744 1.24 13.945z" style="stroke:#181818;stroke-width:1"/></g><g fill="none"><path d="M4856.46 270.535C4833.13 307.465 4790 369.128 4740 409c-24.92 19.875-54.47 37.04-83.32 51.25M4659.44 466.689l-21.07 2.247 15.07-14.896 6 12.649z" style="stroke:#181818;stroke-width:1"/></g><g fill="none"><path d="m3211.68 533.585 267.31 71.194M3481.02 598.076l17.52 11.911-21.13 1.617 3.61-13.528z" style="stroke:#181818;stroke-width:1"/></g><g fill="none"><path d="M3125 336.235v128.846M3132 465.48l-7 20-7-20h14z" style="stroke:#181818;stroke-width:1"/></g><g fill="none"><path d="M2546.16 262.512C2565.97 300.523 2611.19 375.544 2674 409c138.7 73.878 203.92-19.122 352 33.5 19.94 7.084 39.77 19.065 56.38 30.889M3086.63 467.827l11.78 17.616-20.19-6.428 8.41-11.188z" style="stroke:#181818;stroke-width:1"/></g><g fill="none"><path d="M2292.42 262.654C2306.04 300.875 2338.98 376.198 2396 409c121.52 69.913 496.94-10.677 630 33.5 20.22 6.715 40.23 18.736 56.9 30.696M3087.27 467.726l11.67 17.687-20.15-6.549 8.48-11.138z" style="stroke:#181818;stroke-width:1"/></g><g fill="none"><path d="M2051.06 262.559C2069.23 300.995 2111.55 377.088 2174 409c84.36 43.108 761.88 4.27 852 33.5 20.27 6.575 40.28 18.569 56.95 30.547M3087.34 467.59l11.64 17.705-20.14-6.58 8.5-11.125z" style="stroke:#181818;stroke-width:1"/></g><g fill="none"><path d="M3939.64 262.774C3921.53 300.47 3880.31 374.161 3821 409c-96.02 56.402-408.72 82.95-580.46 93.548M3240.7 509.55l-20.38-5.788 19.55-8.186.83 13.974z" style="stroke:#181818;stroke-width:1"/></g><g fill="none"><path d="M3688.99 262.574C3671.65 299.642 3632.41 372.033 3576 409c-100.96 66.16-239.14 88.917-335.85 96.438M3240.6 512.423l-20.43-5.601 19.47-8.365.96 13.966z" style="stroke:#181818;stroke-width:1"/></g></svg>