<svg xmlns="http://www.w3.org/2000/svg" height="741" preserveAspectRatio="none" style="width:2205px;height:741px;background:#fff" width="2205"><path d="M67 6h73a3.75 3.75 0 0 1 2.5 2.5l7 19.797H1768a2.5 2.5 0 0 1 2.5 2.5V731.5a2.5 2.5 0 0 1-2.5 2.5H67a2.5 2.5 0 0 1-2.5-2.5V8.5A2.5 2.5 0 0 1 67 6" fill="none" style="stroke:#000;stroke-width:1.5"/><path style="stroke:#000;stroke-width:1.5" d="M64.5 28.297h85"/><text font-family="sans-serif" font-size="14" font-weight="bold" textLength="72" x="68.5" y="20.995">Graphics</text><path d="M1797 488.5h37a3.75 3.75 0 0 1 2.5 2.5l7 19.797H1974a2.5 2.5 0 0 1 2.5 2.5V585a2.5 2.5 0 0 1-2.5 2.5h-177a2.5 2.5 0 0 1-2.5-2.5v-94a2.5 2.5 0 0 1 2.5-2.5" fill="none" style="stroke:#000;stroke-width:1.5"/><path style="stroke:#000;stroke-width:1.5" d="M1794.5 510.797h49"/><text font-family="sans-serif" font-size="14" font-weight="bold" textLength="36" x="1798.5" y="503.495">Core</text><path d="M1797 87.5h50a3.75 3.75 0 0 1 2.5 2.5l7 19.797H2196a2.5 2.5 0 0 1 2.5 2.5V249a2.5 2.5 0 0 1-2.5 2.5h-399a2.5 2.5 0 0 1-2.5-2.5V90a2.5 2.5 0 0 1 2.5-2.5" fill="none" style="stroke:#000;stroke-width:1.5"/><path style="stroke:#000;stroke-width:1.5" d="M1794.5 109.797h62"/><text font-family="sans-serif" font-size="14" font-weight="bold" textLength="49" x="1798.5" y="102.495">Effect</text><rect fill="#F1F1F1" height="341.344" rx="2.5" ry="2.5" style="stroke:#181818;stroke-width:.5" width="461" x="126" y="377"/><circle cx="283.25" cy="393" fill="#ADD1B2" style="stroke:#181818;stroke-width:1" r="11"/><path d="M285.594 388.672c-.938-.438-1.531-.578-2.406-.578-2.625 0-4.625 2.078-4.625 4.797v1.125c0 2.578 2.109 4.468 5 4.468 1.218 0 2.375-.296 3.125-.843.578-.407.906-.86.906-1.25a.864.864 0 0 0-.86-.844.831.831 0 0 0-.609.265c-.453.485-.453.485-.64.579-.423.265-1.11.39-1.876.39-2.046 0-3.343-1.094-3.343-2.797v-1.093c0-1.782 1.25-3.094 2.984-3.094.578 0 1.188.156 1.656.406.485.281.656.5.75.906.063.407.094.532.235.657.14.14.375.25.593.25a.92.92 0 0 0 .704-.36c.109-.156.14-.344.14-.765v-1.422c0-.438-.015-.563-.11-.719a.838.838 0 0 0-.734-.406c-.296 0-.5.094-.718.406l-.172-.078Z"/><text font-family="sans-serif" font-size="14" textLength="138" x="303.75" y="397.847">CharacterRenderer</text><path style="stroke:#181818;stroke-width:.5" d="M127 409h459"/><circle cx="137" cy="422.648" fill="none" style="stroke:#038048;stroke-width:1" r="3"/><text font-family="sans-serif" font-size="14" textLength="228" x="146" y="425.995">SpriteRenderer SpriteRenderer</text><circle cx="137" cy="438.945" fill="none" style="stroke:#038048;stroke-width:1" r="3"/><text font-family="sans-serif" font-size="14" textLength="281" x="146" y="442.292">CharacterMaskRenderer MaskRenderer</text><circle cx="137" cy="455.242" fill="none" style="stroke:#038048;stroke-width:1" r="3"/><text font-family="sans-serif" font-size="14" textLength="247" x="146" y="458.589">Sprite CharacterSprite «readonly»</text><path fill="none" style="stroke:#c82930;stroke-width:1" d="M134 468.539h6v6h-6z"/><text font-family="sans-serif" font-size="14" textLength="194" x="146" y="474.886">Sprite _characterInitSprite</text><circle cx="137" cy="487.836" fill="none" style="stroke:#038048;stroke-width:1" r="3"/><text font-family="sans-serif" font-size="14" textLength="166" x="146" y="491.183">float PivotY «readonly»</text><circle cx="137" cy="504.133" fill="none" style="stroke:#038048;stroke-width:1" r="3"/><text font-family="sans-serif" font-size="14" textLength="198" x="146" y="507.479">float SpriteArea «readonly»</text><circle cx="137" cy="520.43" fill="none" style="stroke:#038048;stroke-width:1" r="3"/><text font-family="sans-serif" font-size="14" textLength="296" x="146" y="523.776">List&lt;Vector2&gt; SpriteVertices «readonly»</text><path fill="none" style="stroke:#c82930;stroke-width:1" d="M134 533.727h6v6h-6z"/><text font-family="sans-serif" font-size="14" textLength="173" x="146" y="540.073">Action _onSpriteLoaded</text><path style="stroke:#181818;stroke-width:.5" d="M127 547.375h459"/><path fill="#F24D5C" style="stroke:#c82930;stroke-width:1" d="M134 558.023h6v6h-6z"/><text font-family="sans-serif" font-size="14" textLength="138" x="146" y="564.37">InitializeRenderer()</text><path fill="#F24D5C" style="stroke:#c82930;stroke-width:1" d="M134 574.32h6v6h-6z"/><text font-family="sans-serif" font-size="14" textLength="129" x="146" y="580.667">UpdateRenderer()</text><circle cx="137" cy="593.617" fill="#84BE84" style="stroke:#038048;stroke-width:1" r="3"/><text font-family="sans-serif" font-size="14" textLength="126" x="146" y="596.964">EnableRenderer()</text><circle cx="137" cy="609.914" fill="#84BE84" style="stroke:#038048;stroke-width:1" r="3"/><text font-family="sans-serif" font-size="14" textLength="130" x="146" y="613.261">DisableRenderer()</text><path fill="#F24D5C" style="stroke:#c82930;stroke-width:1" d="M134 623.211h6v6h-6z"/><text font-family="sans-serif" font-size="14" textLength="216" x="146" y="629.558">GetCharacterSpriteAreaSize()</text><path fill="#F24D5C" style="stroke:#c82930;stroke-width:1" d="M134 639.508h6v6h-6z"/><text font-family="sans-serif" font-size="14" textLength="435" x="146" y="645.855">List&lt;Vector2&gt; GetCurrentPositionCharacterSpriteVertices()</text><circle cx="137" cy="658.805" fill="#84BE84" style="stroke:#038048;stroke-width:1" r="3"/><text font-family="sans-serif" font-size="14" textLength="241" x="146" y="662.151">ExecuteEffect(EffectBase effect)</text><circle cx="137" cy="675.102" fill="#84BE84" style="stroke:#038048;stroke-width:1" r="3"/><text font-family="sans-serif" font-size="14" textLength="241" x="146" y="678.448">ReverseEffect(EffectBase effect)</text><circle cx="137" cy="691.398" fill="#84BE84" style="stroke:#038048;stroke-width:1" r="3"/><text font-family="sans-serif" font-size="14" textLength="346" x="146" y="694.745">IEnumerator EffectSequence(EffectBase effect)</text><circle cx="137" cy="707.695" fill="#84BE84" style="stroke:#038048;stroke-width:1" r="3"/><text font-family="sans-serif" font-size="14" textLength="230" x="146" y="711.042">OnEndEffect(EffectBase effect)</text><g><circle cx="85.5" cy="547.5" fill="#F1F1F1" style="stroke:#181818;stroke-width:1.5" r="5"/></g><text font-family="sans-serif" font-size="14" textLength="159" x="6" y="565.495">Effect.IEffectPlayable</text><g><rect fill="#F1F1F1" height="129.484" rx="2.5" ry="2.5" style="stroke:#181818;stroke-width:.5" width="463" x="81" y="114.5"/><circle cx="221.25" cy="130.5" fill="#ADD1B2" style="stroke:#181818;stroke-width:1" r="11"/><path d="M223.594 126.172c-.938-.438-1.531-.578-2.406-.578-2.625 0-4.625 2.078-4.625 4.797v1.125c0 2.578 2.109 4.468 5 4.468 1.218 0 2.375-.297 3.125-.843.578-.407.906-.86.906-1.25a.864.864 0 0 0-.86-.844.831.831 0 0 0-.609.266c-.453.484-.453.484-.64.578-.423.265-1.11.39-1.876.39-2.047 0-3.343-1.094-3.343-2.797v-1.093c0-1.782 1.25-3.094 2.984-3.094.578 0 1.188.156 1.656.406.485.281.656.5.75.906.063.407.094.532.235.657.14.14.375.25.593.25a.92.92 0 0 0 .703-.36c.11-.156.141-.344.141-.765v-1.422c0-.438-.016-.563-.11-.719a.838.838 0 0 0-.734-.406c-.297 0-.5.094-.718.406l-.172-.078Z"/><text font-family="sans-serif" font-size="14" textLength="174" x="241.75" y="135.347">CharacterMaskRenderer</text><path style="stroke:#181818;stroke-width:.5" d="M82 146.5h461"/><path fill="none" style="stroke:#c82930;stroke-width:1" d="M89 157.148h6v6h-6z"/><text font-family="sans-serif" font-size="14" textLength="233" x="101" y="163.495">SpriteRenderer _spriteRenderer</text><path style="stroke:#181818;stroke-width:.5" d="M82 170.797h461"/><circle cx="92" cy="184.445" fill="#84BE84" style="stroke:#038048;stroke-width:1" r="3"/><text font-family="sans-serif" font-size="14" textLength="437" x="101" y="187.792">InitMaskRenderer(string sortinyLayerName, int sortingOrder)</text><circle cx="92" cy="200.742" fill="#84BE84" style="stroke:#038048;stroke-width:1" r="3"/><text font-family="sans-serif" font-size="14" textLength="417" x="101" y="204.089">UpdateMaskRenderer(SpriteRenderer characterRenderer)</text><circle cx="92" cy="217.039" fill="#84BE84" style="stroke:#038048;stroke-width:1" r="3"/><text font-family="sans-serif" font-size="14" textLength="162" x="101" y="220.386">EnableMaskRenderer()</text><circle cx="92" cy="233.336" fill="#84BE84" style="stroke:#038048;stroke-width:1" r="3"/><text font-family="sans-serif" font-size="14" textLength="166" x="101" y="236.683">DisableMaskRenderer()</text></g><path d="M622.5 530v8.566L340 470.04l282.5 76.527v8.567h316V540l-10-10h-306" fill="#FEFFDD" style="stroke:#181818;stroke-width:.5"/><path d="M928.5 530v10h10l-10-10" fill="#FEFFDD" style="stroke:#181818;stroke-width:.5"/><text font-family="sans-serif" font-size="13" textLength="295" x="628.5" y="547.067">This member is for calculate fixed sprite area.</text><g><rect fill="#F1F1F1" height="276.156" rx="2.5" ry="2.5" style="stroke:#181818;stroke-width:.5" width="590" x="579.5" y="41"/><circle cx="801.25" cy="57" fill="#ADD1B2" style="stroke:#181818;stroke-width:1" r="11"/><path d="M803.594 52.672c-.938-.438-1.532-.578-2.407-.578-2.625 0-4.625 2.078-4.625 4.797v1.125c0 2.578 2.11 4.468 5 4.468 1.22 0 2.375-.297 3.125-.843.579-.407.907-.86.907-1.25a.864.864 0 0 0-.86-.844.831.831 0 0 0-.609.266c-.453.484-.453.484-.64.578-.423.265-1.11.39-1.876.39-2.047 0-3.343-1.093-3.343-2.797v-1.093c0-1.782 1.25-3.094 2.984-3.094.578 0 1.188.156 1.656.406.485.281.657.5.75.906.063.407.094.532.235.657.14.14.375.25.593.25a.92.92 0 0 0 .703-.36c.11-.156.141-.343.141-.765v-1.422c0-.438-.015-.563-.11-.719a.838.838 0 0 0-.734-.406c-.297 0-.5.093-.718.406l-.172-.078Z"/><text font-family="sans-serif" font-size="14" textLength="138" x="821.75" y="61.847">CharacterAnimator</text><path style="stroke:#181818;stroke-width:.5" d="M580.5 73h588"/><path fill="none" style="stroke:#c82930;stroke-width:1" d="M587.5 83.648h6v6h-6z"/><text font-family="sans-serif" font-size="14" textLength="546" x="599.5" y="89.995">Dictionary&lt;CharacterMoveType, StateAnimation&gt; _mapMoveAnimationClip</text><path fill="none" style="stroke:#c82930;stroke-width:1" d="M587.5 99.945h6v6h-6z"/><text font-family="sans-serif" font-size="14" textLength="564" x="599.5" y="106.292">Dictionary&lt;CharacterActionType, StateAnimation&gt; _mapActionAnimationClip</text><path fill="none" style="stroke:#c82930;stroke-width:1" d="M587.5 116.242h6v6h-6z"/><text font-family="sans-serif" font-size="14" textLength="197" x="599.5" y="122.589">int _animatorDirectionHash</text><path fill="none" style="stroke:#c82930;stroke-width:1" d="M587.5 132.539h6v6h-6z"/><text font-family="sans-serif" font-size="14" textLength="235" x="599.5" y="138.886">CharacterStatus _charaterStatus</text><path fill="none" style="stroke:#c82930;stroke-width:1" d="M587.5 148.836h6v6h-6z"/><text font-family="sans-serif" font-size="14" textLength="143" x="599.5" y="155.183">Animator _animator</text><circle cx="590.5" cy="168.133" fill="none" style="stroke:#038048;stroke-width:1" r="3"/><text font-family="sans-serif" font-size="14" textLength="491" x="599.5" y="171.48">RuntimeAnimatorController RuntimeAnimatorController «property»</text><path fill="none" style="stroke:#c82930;stroke-width:1" d="M587.5 181.43h6v6h-6z"/><text font-family="sans-serif" font-size="14" textLength="195" x="599.5" y="187.776">Action _onAnimatorLoaded</text><circle cx="590.5" cy="200.727" fill="none" style="stroke:#038048;stroke-width:1" r="3"/><text font-family="sans-serif" font-size="14" textLength="273" x="599.5" y="204.073">Action OnActionAnimationCompleted</text><path style="stroke:#181818;stroke-width:.5" d="M580.5 211.375h588"/><path fill="#F24D5C" style="stroke:#c82930;stroke-width:1" d="M587.5 222.023h6v6h-6z"/><text font-family="sans-serif" font-size="14" textLength="210" x="599.5" y="228.37">CachedMoveAnimationClips()</text><path fill="#F24D5C" style="stroke:#c82930;stroke-width:1" d="M587.5 238.32h6v6h-6z"/><text font-family="sans-serif" font-size="14" textLength="219" x="599.5" y="244.667">CachedActionAnimationClips()</text><path fill="#F24D5C" style="stroke:#c82930;stroke-width:1" d="M587.5 254.617h6v6h-6z"/><text font-family="sans-serif" font-size="14" textLength="196" x="599.5" y="260.964">UpdateAnimatorDirection()</text><path fill="#F24D5C" style="stroke:#c82930;stroke-width:1" d="M587.5 270.914h6v6h-6z"/><text font-family="sans-serif" font-size="14" textLength="376" x="599.5" y="277.261">PlayMoveAnimation(CharacterMoveType moveType)</text><path fill="#F24D5C" style="stroke:#c82930;stroke-width:1" d="M587.5 287.211h6v6h-6z"/><text font-family="sans-serif" font-size="14" textLength="394" x="599.5" y="293.558">PlayActionAnimation(CharacterActionType moveType)</text><path fill="#F24D5C" style="stroke:#c82930;stroke-width:1" d="M587.5 303.508h6v6h-6z"/><text font-family="sans-serif" font-size="14" textLength="258" x="599.5" y="309.854">ActionAnimationCompleteHandler()</text></g><path d="M1204.5 144v8.566l-114 14.067 114-6.067v8.567h550V154l-10-10h-540" fill="#FEFFDD" style="stroke:#181818;stroke-width:.5"/><path d="M1744.5 144v10h10l-10-10" fill="#FEFFDD" style="stroke:#181818;stroke-width:.5"/><text font-family="sans-serif" font-size="13" textLength="529" x="1210.5" y="161.067">This property will be set on CharacterSpawner and call _onAnimatorLoaded action.</text><path d="M1204.5 179.133v8.566l-347 117.309 347-109.309v8.567h480v-15.133l-10-10h-470" fill="#FEFFDD" style="stroke:#181818;stroke-width:.5"/><path d="M1674.5 179.133v10h10l-10-10" fill="#FEFFDD" style="stroke:#181818;stroke-width:.5"/><text font-family="sans-serif" font-size="13" textLength="459" x="1210.5" y="196.2">This method will be call when the character action animation clip event.</text><g><rect fill="#F1F1F1" height="48" rx="2.5" ry="2.5" style="stroke:#181818;stroke-width:.5" width="149" x="1811" y="523.5"/><circle cx="1826" cy="539.5" fill="#ADD1B2" style="stroke:#181818;stroke-width:1" r="11"/><path d="M1828.344 535.172c-.938-.438-1.532-.578-2.407-.578-2.624 0-4.624 2.078-4.624 4.797v1.125c0 2.578 2.109 4.468 5 4.468 1.218 0 2.374-.297 3.124-.843.579-.407.907-.86.907-1.25a.864.864 0 0 0-.86-.844.831.831 0 0 0-.609.265c-.453.485-.453.485-.64.579-.422.265-1.11.39-1.876.39-2.046 0-3.343-1.093-3.343-2.797v-1.093c0-1.782 1.25-3.094 2.984-3.094.578 0 1.188.156 1.656.406.485.281.657.5.75.906.063.407.094.532.235.657.14.14.375.25.593.25a.92.92 0 0 0 .704-.36c.109-.156.14-.343.14-.765v-1.422c0-.438-.015-.563-.11-.719a.838.838 0 0 0-.734-.406c-.296 0-.5.093-.718.406l-.172-.078Z"/><text font-family="sans-serif" font-size="14" textLength="117" x="1840" y="544.347">CharacterStatus</text><path style="stroke:#181818;stroke-width:.5" d="M1812 555.5h147M1812 563.5h147"/></g><g><rect fill="#F1F1F1" height="113.188" rx="2.5" ry="2.5" style="stroke:#181818;stroke-width:.5" width="372" x="1810.5" y="122.5"/><circle cx="1939.75" cy="138.5" fill="#B4A7E5" style="stroke:#181818;stroke-width:1" r="11"/><path d="M1940.703 135.281h1.719c.39 0 .578-.031.703-.11a.838.838 0 0 0 .406-.733.858.858 0 0 0-.343-.704c-.172-.109-.313-.14-.766-.14h-5.14c-.438 0-.563.015-.72.11a.893.893 0 0 0-.406.733c0 .282.14.532.36.704.156.109.343.14.765.14H1939v6.516h-1.719c-.437 0-.562.016-.718.125a.872.872 0 0 0-.407.734c0 .25.14.516.36.672.156.125.359.172.765.172h5.14c.75 0 1.11-.281 1.11-.844a.838.838 0 0 0-.343-.703c-.172-.125-.313-.156-.766-.156h-1.719v-6.516Z"/><text font-family="sans-serif" font-size="14" font-style="italic" textLength="105" x="1960.25" y="143.347">IEffectPlayable</text><path style="stroke:#181818;stroke-width:.5" d="M1811.5 154.5h370M1811.5 162.5h370"/><circle cx="1821.5" cy="176.148" fill="#84BE84" style="stroke:#038048;stroke-width:1" r="3"/><text font-family="sans-serif" font-size="14" textLength="241" x="1830.5" y="179.495">ExecuteEffect(EffectBase effect)</text><circle cx="1821.5" cy="192.445" fill="#84BE84" style="stroke:#038048;stroke-width:1" r="3"/><text font-family="sans-serif" font-size="14" textLength="241" x="1830.5" y="195.792">ReverseEffect(EffectBase effect)</text><circle cx="1821.5" cy="208.742" fill="#84BE84" style="stroke:#038048;stroke-width:1" r="3"/><text font-family="sans-serif" font-size="14" textLength="346" x="1830.5" y="212.089">IEnumerator EffectSequence(EffectBase effect)</text><circle cx="1821.5" cy="225.039" fill="#84BE84" style="stroke:#038048;stroke-width:1" r="3"/><text font-family="sans-serif" font-size="14" textLength="230" x="1830.5" y="228.386">OnEndEffect(EffectBase effect)</text></g><g><path d="M90.528 547.5h35.325" fill="none" style="stroke:#181818;stroke-width:1"/></g><g><path d="m320.164 243.839 15.353 127.885" fill="none" style="stroke:#181818;stroke-width:1"/><path fill="#181818" style="stroke:#181818;stroke-width:1" d="m336.117 376.72 2.9-9.412-3.496 4.448-4.447-3.495 5.043 8.459z"/></g><g><path d="M1169.78 312.077c5.93 1.73 11.84 3.374 17.72 4.923 125.94 33.176 471.2-6.806 583 60 54.48 32.557 88.9 102.111 104.74 141.246" fill="none" style="stroke:#181818;stroke-width:1"/><path fill="#181818" style="stroke:#181818;stroke-width:1" d="m1877.26 523.327.387-9.841-2.237 5.196-5.195-2.237 7.045 6.882z"/></g></svg>