<svg xmlns="http://www.w3.org/2000/svg" height="1127" preserveAspectRatio="none" style="width:2415px;height:1127px;background:#fff" width="2415"><path d="M8.5 6h37A3.75 3.75 0 0 1 48 8.5l7 19.797h2124.5a2.5 2.5 0 0 1 2.5 2.5V1117.5a2.5 2.5 0 0 1-2.5 2.5H8.5a2.5 2.5 0 0 1-2.5-2.5V8.5A2.5 2.5 0 0 1 8.5 6" fill="none" style="stroke:#000;stroke-width:1.5"/><path style="stroke:#000;stroke-width:1.5" d="M6 28.297h49"/><text font-family="sans-serif" font-size="14" font-weight="bold" textLength="36" x="10" y="20.995">Core</text><path d="M2208.5 825.5h73a3.75 3.75 0 0 1 2.5 2.5l7 19.797h114.5a2.5 2.5 0 0 1 2.5 2.5V922a2.5 2.5 0 0 1-2.5 2.5h-197a2.5 2.5 0 0 1-2.5-2.5v-94a2.5 2.5 0 0 1 2.5-2.5" fill="none" style="stroke:#000;stroke-width:1.5"/><path style="stroke:#000;stroke-width:1.5" d="M2206 847.797h85"/><text font-family="sans-serif" font-size="14" font-weight="bold" textLength="72" x="2210" y="840.495">Graphics</text><rect fill="#F1F1F1" height="422.828" rx="2.5" ry="2.5" style="stroke:#181818;stroke-width:.5" width="557" x="1608.5" y="182"/><circle cx="1847.25" cy="198" fill="#ADD1B2" style="stroke:#181818;stroke-width:1" r="11"/><path d="M1849.594 193.672c-.938-.438-1.532-.578-2.407-.578-2.624 0-4.624 2.078-4.624 4.797v1.125c0 2.578 2.109 4.468 5 4.468 1.218 0 2.374-.297 3.124-.843.579-.407.907-.86.907-1.25a.864.864 0 0 0-.86-.844.831.831 0 0 0-.609.266c-.453.484-.453.484-.64.578-.422.265-1.11.39-1.876.39-2.046 0-3.343-1.094-3.343-2.797v-1.093c0-1.782 1.25-3.094 2.984-3.094.578 0 1.188.156 1.656.406.485.281.657.5.75.906.063.407.094.532.235.657.14.14.375.25.593.25a.92.92 0 0 0 .704-.36c.109-.156.14-.344.14-.765v-1.422c0-.438-.015-.563-.11-.719a.838.838 0 0 0-.734-.406c-.296 0-.5.094-.718.406l-.172-.078Z"/><text font-family="sans-serif" font-size="14" textLength="71" x="1867.75" y="202.847">Character</text><path style="stroke:#181818;stroke-width:.5" d="M1609.5 214h555"/><path fill="none" style="stroke:#c82930;stroke-width:1" d="M1616.5 224.648h6v6h-6z"/><text font-family="sans-serif" font-size="14" textLength="274" x="1628.5" y="230.995">NetworkCharacter _networkCharacter</text><circle cx="1619.5" cy="243.945" fill="none" style="stroke:#038048;stroke-width:1" r="3"/><text font-family="sans-serif" font-size="14" textLength="167" x="1628.5" y="247.292">CharacterStatus Status</text><circle cx="1619.5" cy="260.242" fill="none" style="stroke:#038048;stroke-width:1" r="3"/><text font-family="sans-serif" font-size="14" textLength="291" x="1628.5" y="263.589">CharacterRenderer Renderer «readonly»</text><circle cx="1619.5" cy="276.539" fill="none" style="stroke:#038048;stroke-width:1" r="3"/><text font-family="sans-serif" font-size="14" textLength="233" x="1628.5" y="279.886">CharacterInput Input «readonly»</text><circle cx="1619.5" cy="292.836" fill="none" style="stroke:#038048;stroke-width:1" r="3"/><text font-family="sans-serif" font-size="14" textLength="269" x="1628.5" y="296.183">bool IsConnectedNetwork «readonly»</text><circle cx="1619.5" cy="309.133" fill="none" style="stroke:#038048;stroke-width:1" r="3"/><text font-family="sans-serif" font-size="14" textLength="163" x="1628.5" y="312.479">bool IsMine «readonly»</text><circle cx="1619.5" cy="325.43" fill="none" style="stroke:#038048;stroke-width:1" r="3"/><text font-family="sans-serif" font-size="14" textLength="235" x="1628.5" y="328.776">Player NetworkPlayer «readonly»</text><circle cx="1619.5" cy="341.727" fill="none" style="stroke:#038048;stroke-width:1" r="3"/><text font-family="sans-serif" font-size="14" textLength="155" x="1628.5" y="345.073">int ViewID «readonly»</text><circle cx="1619.5" cy="358.023" fill="none" style="stroke:#038048;stroke-width:1" r="3"/><text font-family="sans-serif" font-size="14" textLength="245" x="1628.5" y="361.37">Vector3 HeadUpOffset «readonly»</text><circle cx="1619.5" cy="374.32" fill="none" style="stroke:#038048;stroke-width:1" r="3"/><text font-family="sans-serif" font-size="14" textLength="169" x="1628.5" y="377.667">Action OnStatusLoaded</text><circle cx="1619.5" cy="390.617" fill="none" style="stroke:#038048;stroke-width:1" r="3"/><text font-family="sans-serif" font-size="14" textLength="209" x="1628.5" y="393.964">Action&lt;Item&gt; OnPickupItem</text><circle cx="1619.5" cy="406.914" fill="none" style="stroke:#038048;stroke-width:1" r="3"/><text font-family="sans-serif" font-size="14" textLength="198" x="1628.5" y="410.261">Action RemoveHoldingItem</text><circle cx="1619.5" cy="423.211" fill="none" style="stroke:#038048;stroke-width:1" r="3"/><text font-family="sans-serif" font-size="14" textLength="215" x="1628.5" y="426.558">Action&lt;Vector3&gt; OnRespawn</text><path style="stroke:#181818;stroke-width:.5" d="M1609.5 433.859h555"/><circle cx="1619.5" cy="447.508" fill="#84BE84" style="stroke:#038048;stroke-width:1" r="3"/><text font-family="sans-serif" font-size="14" textLength="169" x="1628.5" y="450.854">AddHealth(float health)</text><circle cx="1619.5" cy="463.805" fill="#84BE84" style="stroke:#038048;stroke-width:1" r="3"/><text font-family="sans-serif" font-size="14" textLength="181" x="1628.5" y="467.151">AddStamina(float health)</text><circle cx="1619.5" cy="480.102" fill="#84BE84" style="stroke:#038048;stroke-width:1" r="3"/><text font-family="sans-serif" font-size="14" textLength="340" x="1628.5" y="483.448">TakeDamage(int attackerViewId, float damage)</text><circle cx="1619.5" cy="496.398" fill="#84BE84" style="stroke:#038048;stroke-width:1" r="3"/><text font-family="sans-serif" font-size="14" textLength="197" x="1628.5" y="499.745">PickupItem(int itemViewId)</text><circle cx="1619.5" cy="512.695" fill="#84BE84" style="stroke:#038048;stroke-width:1" r="3"/><text font-family="sans-serif" font-size="14" textLength="88" x="1628.5" y="516.042">ThrowItem()</text><circle cx="1619.5" cy="528.992" fill="#84BE84" style="stroke:#038048;stroke-width:1" r="3"/><text font-family="sans-serif" font-size="14" textLength="110" x="1628.5" y="532.339">ConsumeItem()</text><circle cx="1619.5" cy="545.289" fill="#84BE84" style="stroke:#038048;stroke-width:1" r="3"/><text font-family="sans-serif" font-size="14" textLength="97" x="1628.5" y="548.636">DiscardItem()</text><circle cx="1619.5" cy="561.586" fill="#84BE84" style="stroke:#038048;stroke-width:1" r="3"/><text font-family="sans-serif" font-size="14" textLength="531" x="1628.5" y="564.933">GenerateFootprint(Vector3 generatePos, bool flipX, float lifeTime = 0.0f)</text><circle cx="1619.5" cy="577.883" fill="#84BE84" style="stroke:#038048;stroke-width:1" r="3"/><text font-family="sans-serif" font-size="14" textLength="420" x="1628.5" y="581.23">GenerateSoundWave(Vector3 generatePos, float duration)</text><path fill="#F24D5C" style="stroke:#c82930;stroke-width:1" d="M1616.5 591.18h6v6h-6z"/><text font-family="sans-serif" font-size="14" textLength="200" x="1628.5" y="597.526">OnRespawned(Vector3 pos)</text><g><rect fill="#F1F1F1" height="439.125" rx="2.5" ry="2.5" style="stroke:#181818;stroke-width:.5" width="298" x="1738" y="665"/><circle cx="1828.25" cy="681" fill="#ADD1B2" style="stroke:#181818;stroke-width:1" r="11"/><path d="M1830.594 676.672c-.938-.438-1.532-.578-2.407-.578-2.624 0-4.624 2.078-4.624 4.797v1.125c0 2.578 2.109 4.468 5 4.468 1.218 0 2.374-.297 3.124-.843.579-.407.907-.86.907-1.25a.864.864 0 0 0-.86-.844.831.831 0 0 0-.609.265c-.453.485-.453.485-.64.579-.422.265-1.11.39-1.876.39-2.046 0-3.343-1.093-3.343-2.797v-1.093c0-1.782 1.25-3.094 2.984-3.094.578 0 1.188.156 1.656.406.485.281.657.5.75.906.063.407.094.532.235.657.14.14.375.25.593.25a.92.92 0 0 0 .704-.36c.109-.156.14-.343.14-.765v-1.422c0-.438-.015-.563-.11-.719a.838.838 0 0 0-.734-.406c-.296 0-.5.093-.718.406l-.172-.078Z"/><text font-family="sans-serif" font-size="14" textLength="109" x="1848.75" y="685.847">CharacterInput</text><path style="stroke:#181818;stroke-width:.5" d="M1739 697h296"/><circle cx="1749" cy="710.648" fill="none" style="stroke:#038048;stroke-width:1" r="3"/><text font-family="sans-serif" font-size="14" textLength="182" x="1758" y="713.995">InputReader InputReader</text><path fill="none" style="stroke:#c82930;stroke-width:1" d="M1746 723.945h6v6h-6z"/><text font-family="sans-serif" font-size="14" textLength="203" x="1758" y="730.292">GameCamera _gameCamera</text><path fill="none" style="stroke:#c82930;stroke-width:1" d="M1746 740.242h6v6h-6z"/><text font-family="sans-serif" font-size="14" textLength="223" x="1758" y="746.589">Vector2 _mouseScreenPosition</text><path fill="none" style="stroke:#c82930;stroke-width:1" d="M1746 756.539h6v6h-6z"/><text font-family="sans-serif" font-size="14" textLength="175" x="1758" y="762.886">Vector2 _moveDirection</text><circle cx="1749" cy="775.836" fill="none" style="stroke:#038048;stroke-width:1" r="3"/><text font-family="sans-serif" font-size="14" textLength="183" x="1758" y="779.183">bool InputRun «readonly»</text><circle cx="1749" cy="792.133" fill="none" style="stroke:#038048;stroke-width:1" r="3"/><text font-family="sans-serif" font-size="14" textLength="206" x="1758" y="795.48">bool InputCrouch «readonly»</text><circle cx="1749" cy="808.43" fill="none" style="stroke:#038048;stroke-width:1" r="3"/><text font-family="sans-serif" font-size="14" textLength="120" x="1758" y="811.776">Action OnAttack</text><circle cx="1749" cy="824.727" fill="none" style="stroke:#038048;stroke-width:1" r="3"/><text font-family="sans-serif" font-size="14" textLength="101" x="1758" y="828.073">Action Aiming</text><circle cx="1749" cy="841.023" fill="none" style="stroke:#038048;stroke-width:1" r="3"/><text font-family="sans-serif" font-size="14" textLength="149" x="1758" y="844.37">Action OnThrowItem</text><circle cx="1749" cy="857.32" fill="none" style="stroke:#038048;stroke-width:1" r="3"/><text font-family="sans-serif" font-size="14" textLength="171" x="1758" y="860.667">Action OnConsumeItem</text><circle cx="1749" cy="873.617" fill="none" style="stroke:#038048;stroke-width:1" r="3"/><text font-family="sans-serif" font-size="14" textLength="158" x="1758" y="876.964">Action OnDiscardItem</text><path style="stroke:#181818;stroke-width:.5" d="M1739 884.266h296"/><circle cx="1749" cy="897.914" fill="#84BE84" style="stroke:#038048;stroke-width:1" r="3"/><text font-family="sans-serif" font-size="14" textLength="244" x="1758" y="901.261">Vector3 GetMouseWorldPosition()</text><circle cx="1749" cy="914.211" fill="#84BE84" style="stroke:#038048;stroke-width:1" r="3"/><text font-family="sans-serif" font-size="14" textLength="241" x="1758" y="917.558">Vector2 GetMoveDirectionInput()</text><path fill="#F24D5C" style="stroke:#c82930;stroke-width:1" d="M1746 927.508h6v6h-6z"/><text font-family="sans-serif" font-size="14" textLength="272" x="1758" y="933.855">OnPointInput(Vector2 mousePosition)</text><path fill="#F24D5C" style="stroke:#c82930;stroke-width:1" d="M1746 943.805h6v6h-6z"/><text font-family="sans-serif" font-size="14" textLength="271" x="1758" y="950.151">OnMovementInput(Vector2 direction)</text><path fill="#F24D5C" style="stroke:#c82930;stroke-width:1" d="M1746 960.102h6v6h-6z"/><text font-family="sans-serif" font-size="14" textLength="95" x="1758" y="966.448">OnRunInput()</text><path fill="#F24D5C" style="stroke:#c82930;stroke-width:1" d="M1746 976.398h6v6h-6z"/><text font-family="sans-serif" font-size="14" textLength="161" x="1758" y="982.745">OnRunCanceledInput()</text><path fill="#F24D5C" style="stroke:#c82930;stroke-width:1" d="M1746 992.695h6v6h-6z"/><text font-family="sans-serif" font-size="14" textLength="118" x="1758" y="999.042">OnCrouchInput()</text><path fill="#F24D5C" style="stroke:#c82930;stroke-width:1" d="M1746 1008.992h6v6h-6z"/><text font-family="sans-serif" font-size="14" textLength="184" x="1758" y="1015.339">OnCrouchCanceledInput()</text><path fill="#F24D5C" style="stroke:#c82930;stroke-width:1" d="M1746 1025.289h6v6h-6z"/><text font-family="sans-serif" font-size="14" textLength="117" x="1758" y="1031.636">OnAttackInput()</text><path fill="#F24D5C" style="stroke:#c82930;stroke-width:1" d="M1746 1041.586h6v6h-6z"/><text font-family="sans-serif" font-size="14" textLength="118" x="1758" y="1047.933">OnAimingInput()</text><path fill="#F24D5C" style="stroke:#c82930;stroke-width:1" d="M1746 1057.883h6v6h-6z"/><text font-family="sans-serif" font-size="14" textLength="112" x="1758" y="1064.229">OnThrowInput()</text><path fill="#F24D5C" style="stroke:#c82930;stroke-width:1" d="M1746 1074.18h6v6h-6z"/><text font-family="sans-serif" font-size="14" textLength="134" x="1758" y="1080.526">OnConsumeInput()</text><path fill="#F24D5C" style="stroke:#c82930;stroke-width:1" d="M1746 1090.477h6v6h-6z"/><text font-family="sans-serif" font-size="14" textLength="121" x="1758" y="1096.823">OnDiscardInput()</text></g><g><rect fill="#F1F1F1" height="48" rx="2.5" ry="2.5" style="stroke:#181818;stroke-width:.5" width="149" x="815.5" y="860.5"/><circle cx="830.5" cy="876.5" fill="#ADD1B2" style="stroke:#181818;stroke-width:1" r="11"/><path d="M832.844 872.172c-.938-.438-1.532-.578-2.407-.578-2.625 0-4.625 2.078-4.625 4.797v1.125c0 2.578 2.11 4.468 5 4.468 1.22 0 2.375-.297 3.125-.843.579-.407.907-.86.907-1.25a.864.864 0 0 0-.86-.844.831.831 0 0 0-.609.265c-.453.485-.453.485-.64.579-.423.265-1.11.39-1.876.39-2.047 0-3.343-1.093-3.343-2.797v-1.093c0-1.782 1.25-3.094 2.984-3.094.578 0 1.188.156 1.656.406.485.281.657.5.75.906.063.407.094.532.235.657.14.14.375.25.593.25a.92.92 0 0 0 .703-.36c.11-.156.141-.343.141-.765v-1.422c0-.438-.015-.563-.11-.719a.838.838 0 0 0-.734-.406c-.297 0-.5.093-.718.406l-.172-.078Z"/><text font-family="sans-serif" font-size="14" textLength="117" x="844.5" y="881.347">CharacterStatus</text><path style="stroke:#181818;stroke-width:.5" d="M816.5 892.5h147M816.5 900.5h147"/></g><path d="M940.5 376v25.133h633V394l39-151.555-39 143.555-10-10h-623" fill="#FEFFDD" style="stroke:#181818;stroke-width:.5"/><path d="M1563.5 376v10h10l-10-10" fill="#FEFFDD" style="stroke:#181818;stroke-width:.5"/><text font-family="sans-serif" font-size="13" textLength="612" x="946.5" y="393.067">This member is property and will be set when the character spawned and call OnStatusLoaded.</text><path d="M1231.5 859.5v40.266h471v-16.133l39.5-174.485-39.5 166.485V869.5l-10-10h-461" fill="#FEFFDD" style="stroke:#181818;stroke-width:.5"/><path d="M1692.5 859.5v10h10l-10-10" fill="#FEFFDD" style="stroke:#181818;stroke-width:.5"/><text font-family="sans-serif" font-size="13" textLength="200" x="1237.5" y="876.567">InputReader is ScriptableObject</text><text font-family="sans-serif" font-size="13" textLength="450" x="1237.5" y="891.7">so you can find on &quot;Resources/ScriptableObjects/Input/InputReaderSO&quot;</text><g><rect fill="#F1F1F1" height="80.594" rx="2.5" ry="2.5" style="stroke:#181818;stroke-width:.5" width="177" x="1798.5" y="41"/><circle cx="1821.6" cy="57" fill="#ADD1B2" style="stroke:#181818;stroke-width:1" r="11"/><path d="M1823.944 52.672c-.938-.438-1.532-.578-2.407-.578-2.625 0-4.625 2.078-4.625 4.797v1.125c0 2.578 2.11 4.468 5 4.468 1.22 0 2.375-.297 3.125-.843.579-.407.907-.86.907-1.25a.864.864 0 0 0-.86-.844.831.831 0 0 0-.609.266c-.453.484-.453.484-.64.578-.423.265-1.11.39-1.876.39-2.047 0-3.343-1.093-3.343-2.797v-1.093c0-1.782 1.25-3.094 2.984-3.094.578 0 1.188.156 1.656.406.485.281.656.5.75.906.063.407.094.532.235.657.14.14.375.25.593.25a.92.92 0 0 0 .703-.36c.11-.156.141-.343.141-.765v-1.422c0-.438-.016-.563-.11-.719a.838.838 0 0 0-.734-.406c-.297 0-.5.093-.718.406l-.172-.078Z"/><text font-family="sans-serif" font-size="14" textLength="127" x="1837.4" y="61.847">CharacterRotator</text><path style="stroke:#181818;stroke-width:.5" d="M1799.5 73h175"/><path fill="none" style="stroke:#c82930;stroke-width:1" d="M1806.5 83.648h6v6h-6z"/><text font-family="sans-serif" font-size="14" textLength="151" x="1818.5" y="89.995">Character _character</text><path style="stroke:#181818;stroke-width:.5" d="M1799.5 97.297h175"/><path fill="#F24D5C" style="stroke:#c82930;stroke-width:1" d="M1806.5 107.945h6v6h-6z"/><text font-family="sans-serif" font-size="14" textLength="137" x="1818.5" y="114.292">UpdateViewAngle()</text></g><g><rect fill="#F1F1F1" height="406.531" rx="2.5" ry="2.5" style="stroke:#181818;stroke-width:.5" width="883" x="22.5" y="190"/><circle cx="393.75" cy="206" fill="#ADD1B2" style="stroke:#181818;stroke-width:1" r="11"/><path d="M396.094 201.672c-.938-.438-1.531-.578-2.406-.578-2.625 0-4.625 2.078-4.625 4.797v1.125c0 2.578 2.109 4.468 5 4.468 1.218 0 2.375-.297 3.125-.843.578-.407.906-.86.906-1.25a.864.864 0 0 0-.86-.844.831.831 0 0 0-.609.266c-.453.484-.453.484-.64.578-.423.265-1.11.39-1.876.39-2.046 0-3.343-1.094-3.343-2.797v-1.093c0-1.782 1.25-3.094 2.984-3.094.578 0 1.188.156 1.656.406.485.281.656.5.75.906.063.407.094.532.235.657.14.14.375.25.593.25a.92.92 0 0 0 .704-.36c.109-.156.14-.344.14-.765v-1.422c0-.438-.015-.563-.11-.719a.838.838 0 0 0-.734-.406c-.296 0-.5.094-.718.406l-.172-.078Z"/><text font-family="sans-serif" font-size="14" textLength="132" x="414.25" y="210.847">NetworkCharacter</text><path style="stroke:#181818;stroke-width:.5" d="M23.5 222h881"/><path fill="none" style="stroke:#c82930;stroke-width:1" d="M30.5 232.648h6v6h-6z"/><text font-family="sans-serif" font-size="14" textLength="172" x="42.5" y="238.995">CharacterStatus _status</text><circle cx="33.5" cy="251.945" fill="none" style="stroke:#038048;stroke-width:1" r="3"/><text font-family="sans-serif" font-size="14" textLength="94" x="42.5" y="255.292">Player Owner</text><path fill="none" style="stroke:#c82930;stroke-width:1" d="M30.5 265.242h6v6h-6z"/><text font-family="sans-serif" font-size="14" textLength="293" x="42.5" y="271.589">VoidEventChannelSO _enteredHideState</text><path fill="none" style="stroke:#c82930;stroke-width:1" d="M30.5 281.539h6v6h-6z"/><text font-family="sans-serif" font-size="14" textLength="281" x="42.5" y="287.886">VoidEventChannelSO _exitedHideState</text><path style="stroke:#181818;stroke-width:.5" d="M23.5 295.188h881"/><circle cx="33.5" cy="308.836" fill="#84BE84" style="stroke:#038048;stroke-width:1" r="3"/><text font-family="sans-serif" font-size="14" textLength="342" x="42.5" y="312.183">TakeDamage(int attackerViewID, float damage)</text><circle cx="33.5" cy="325.133" fill="#84BE84" style="stroke:#038048;stroke-width:1" r="3"/><text font-family="sans-serif" font-size="14" textLength="197" x="42.5" y="328.479">PickupItem(int itemViewId)</text><circle cx="33.5" cy="341.43" fill="#84BE84" style="stroke:#038048;stroke-width:1" r="3"/><text font-family="sans-serif" font-size="14" textLength="259" x="42.5" y="344.776">ThrowItem(Vector3 thrownPosition)</text><circle cx="33.5" cy="357.727" fill="#84BE84" style="stroke:#038048;stroke-width:1" r="3"/><text font-family="sans-serif" font-size="14" textLength="110" x="42.5" y="361.073">ConsumeItem()</text><circle cx="33.5" cy="374.023" fill="#84BE84" style="stroke:#038048;stroke-width:1" r="3"/><text font-family="sans-serif" font-size="14" textLength="97" x="42.5" y="377.37">DiscardItem()</text><circle cx="33.5" cy="390.32" fill="#84BE84" style="stroke:#038048;stroke-width:1" r="3"/><text font-family="sans-serif" font-size="14" textLength="531" x="42.5" y="393.667">GenerateFootprint(Vector3 generatePos, bool flipX, float lifeTime = 0.0f)</text><circle cx="33.5" cy="406.617" fill="#84BE84" style="stroke:#038048;stroke-width:1" r="3"/><text font-family="sans-serif" font-size="14" textLength="420" x="42.5" y="409.964">GenerateSoundWave(Vector3 generatePos, float duration)</text><path fill="#F24D5C" style="stroke:#c82930;stroke-width:1" d="M30.5 419.914h6v6h-6z"/><text font-family="sans-serif" font-size="14" textLength="378" x="42.5" y="426.261">RPC_TakeDamage(int attackerViewID, float damage)</text><path fill="#F24D5C" style="stroke:#c82930;stroke-width:1" d="M30.5 436.211h6v6h-6z"/><text font-family="sans-serif" font-size="14" textLength="452" x="42.5" y="442.558">RPC_PickUpItem(int pickedUpCharacterViewId, int itemViewId)</text><path fill="#F24D5C" style="stroke:#c82930;stroke-width:1" d="M30.5 452.508h6v6h-6z"/><text font-family="sans-serif" font-size="14" textLength="431" x="42.5" y="458.854">RPC_ThrowItem(int throwerViewId, Vector3 thrownPosition)</text><path fill="#F24D5C" style="stroke:#c82930;stroke-width:1" d="M30.5 468.805h6v6h-6z"/><text font-family="sans-serif" font-size="14" textLength="287" x="42.5" y="475.151">RPC_ConsumeItem(int consumerViewId)</text><path fill="#F24D5C" style="stroke:#c82930;stroke-width:1" d="M30.5 485.102h6v6h-6z"/><text font-family="sans-serif" font-size="14" textLength="270" x="42.5" y="491.448">RPC_DiscardItem(int discarderViewId)</text><path fill="#F24D5C" style="stroke:#c82930;stroke-width:1" d="M30.5 501.398h6v6h-6z"/><text font-family="sans-serif" font-size="14" textLength="857" x="42.5" y="507.745">RPC_GenerateFootprint(string className, string skinName, Vector3 generatePos, float angle, bool flipX, float lifeTime)</text><path fill="#F24D5C" style="stroke:#c82930;stroke-width:1" d="M30.5 517.695h6v6h-6z"/><text font-family="sans-serif" font-size="14" textLength="456" x="42.5" y="524.042">RPC_GenerateSoundWave(Vector3 generatePos, float duration)</text><path fill="#F24D5C" style="stroke:#c82930;stroke-width:1" d="M30.5 533.992h6v6h-6z"/><text font-family="sans-serif" font-size="14" textLength="160" x="42.5" y="540.339">OnEnteredHideState()</text><path fill="#F24D5C" style="stroke:#c82930;stroke-width:1" d="M30.5 550.289h6v6h-6z"/><text font-family="sans-serif" font-size="14" textLength="148" x="42.5" y="556.636">OnExitedHideState()</text><circle cx="33.5" cy="569.586" fill="#84BE84" style="stroke:#038048;stroke-width:1" r="3"/><text font-family="sans-serif" font-size="14" textLength="334" x="42.5" y="572.933">OnPhotonInstantiate(PhotonMessageInfo info)</text><circle cx="33.5" cy="585.883" fill="#84BE84" style="stroke:#038048;stroke-width:1" r="3"/><text font-family="sans-serif" font-size="14" textLength="518" x="42.5" y="589.23">OnPhotonSerializeView(PhotonStream stream, PhotonMessageInfo info)</text></g><g><rect fill="#F1F1F1" height="48" rx="2.5" ry="2.5" style="stroke:#181818;stroke-width:.5" width="168" x="380" y="860.5"/><circle cx="395" cy="876.5" fill="#ADD1B2" style="stroke:#181818;stroke-width:1" r="11"/><path d="M397.344 872.172c-.938-.438-1.531-.578-2.406-.578-2.625 0-4.625 2.078-4.625 4.797v1.125c0 2.578 2.109 4.468 5 4.468 1.218 0 2.375-.297 3.125-.843.578-.407.906-.86.906-1.25a.864.864 0 0 0-.86-.844.831.831 0 0 0-.609.265c-.453.485-.453.485-.64.579-.423.265-1.11.39-1.876.39-2.046 0-3.343-1.093-3.343-2.797v-1.093c0-1.782 1.25-3.094 2.984-3.094.578 0 1.188.156 1.656.406.485.281.656.5.75.906.063.407.094.532.235.657.14.14.375.25.593.25a.92.92 0 0 0 .704-.36c.109-.156.14-.343.14-.765v-1.422c0-.438-.015-.563-.11-.719a.838.838 0 0 0-.734-.406c-.296 0-.5.093-.718.406l-.172-.078Z"/><text font-family="sans-serif" font-size="14" textLength="136" x="409" y="881.347">MonoBehaviourPun</text><path style="stroke:#181818;stroke-width:.5" d="M381 892.5h166M381 900.5h166"/></g><g><rect fill="#F1F1F1" height="48" rx="2.5" ry="2.5" style="stroke:#181818;stroke-width:.5" width="170" x="2222" y="860.5"/><circle cx="2237" cy="876.5" fill="#ADD1B2" style="stroke:#181818;stroke-width:1" r="11"/><path d="M2239.344 872.172c-.938-.438-1.532-.578-2.407-.578-2.624 0-4.624 2.078-4.624 4.797v1.125c0 2.578 2.109 4.468 5 4.468 1.218 0 2.374-.297 3.124-.843.579-.407.907-.86.907-1.25a.864.864 0 0 0-.86-.844.831.831 0 0 0-.609.265c-.453.485-.453.485-.64.579-.423.265-1.11.39-1.876.39-2.046 0-3.343-1.093-3.343-2.797v-1.093c0-1.782 1.25-3.094 2.984-3.094.578 0 1.188.156 1.656.406.485.281.657.5.75.906.063.407.094.532.235.657.14.14.375.25.593.25a.92.92 0 0 0 .704-.36c.109-.156.14-.343.14-.765v-1.422c0-.438-.015-.563-.11-.719a.838.838 0 0 0-.734-.406c-.296 0-.5.093-.718.406l-.172-.078Z"/><text font-family="sans-serif" font-size="14" textLength="138" x="2251" y="881.347">CharacterRenderer</text><path style="stroke:#181818;stroke-width:.5" d="M2223 892.5h168M2223 900.5h168"/></g><g><path d="M1887 605.073v54.616" fill="none" style="stroke:#181818;stroke-width:1"/><path fill="#181818" style="stroke:#181818;stroke-width:1" d="m1887 664.814 4-9-4 4-4-4 4 9z"/></g><g><path d="M1608.49 597.453A499.727 499.727 0 0 1 1591 605c-157.05 64.19-219.16-2.234-377 60-120.19 47.391-240.852 145.181-294.777 192.167" fill="none" style="stroke:#181818;stroke-width:1"/><path fill="#181818" style="stroke:#181818;stroke-width:1" d="m915.457 860.46 9.408-2.913-5.644-.378.378-5.644-4.142 8.935z"/></g><g><path d="M2129.69 605.191c18.45 19.524 36.15 39.588 52.31 59.809 50.01 62.589 92.5 147.584 112.59 190.8" fill="none" style="stroke:#181818;stroke-width:1"/><path fill="#181818" style="stroke:#181818;stroke-width:1" d="m2296.69 860.354-.157-9.848-1.946 5.312-5.312-1.946 7.415 6.482z"/></g><g><path d="M1887 122.08v54.394" fill="none" style="stroke:#181818;stroke-width:1"/><path fill="#181818" style="stroke:#181818;stroke-width:1" d="m1887 181.695 4-9-4 4-4-4 4 9z"/></g><g><path d="m640.653 597.278 225.611 258.976" fill="none" style="stroke:#181818;stroke-width:1"/><path fill="#181818" style="stroke:#181818;stroke-width:1" d="m869.79 860.301-2.896-9.413-.388 5.643-5.644-.389 8.928 4.159z"/></g><g fill="none"><path d="M464 597.278v243.006M471 840.301l-7 20-7-20h14z" style="stroke:#181818;stroke-width:1"/></g></svg>