<svg xmlns="http://www.w3.org/2000/svg" height="642" preserveAspectRatio="none" style="width:795px;height:642px;background:#fff" width="795"><path d="M654.5 390h37a3.75 3.75 0 0 1 2.5 2.5l7 19.797h84.5a2.5 2.5 0 0 1 2.5 2.5V486.5a2.5 2.5 0 0 1-2.5 2.5h-131a2.5 2.5 0 0 1-2.5-2.5v-94a2.5 2.5 0 0 1 2.5-2.5" fill="none" style="stroke:#000;stroke-width:1.5"/><path style="stroke:#000;stroke-width:1.5" d="M652 412.297h49"/><text font-family="sans-serif" font-size="14" font-weight="bold" textLength="36" x="656" y="404.995">Core</text><rect fill="#F1F1F1" height="48" rx="2.5" ry="2.5" style="stroke:#181818;stroke-width:.5" width="103" x="668.5" y="425"/><circle cx="683.5" cy="441" fill="#ADD1B2" style="stroke:#181818;stroke-width:1" r="11"/><path d="M685.844 436.672c-.938-.438-1.532-.578-2.407-.578-2.625 0-4.625 2.078-4.625 4.797v1.125c0 2.578 2.11 4.468 5 4.468 1.22 0 2.375-.296 3.125-.843.579-.407.907-.86.907-1.25a.864.864 0 0 0-.86-.844.831.831 0 0 0-.609.265c-.453.485-.453.485-.64.579-.423.265-1.11.39-1.876.39-2.047 0-3.343-1.094-3.343-2.797v-1.093c0-1.782 1.25-3.094 2.984-3.094.578 0 1.188.156 1.656.406.485.281.657.5.75.906.063.407.094.532.235.657.14.14.375.25.593.25a.92.92 0 0 0 .703-.36c.11-.156.141-.344.141-.765v-1.422c0-.438-.015-.563-.11-.719a.838.838 0 0 0-.734-.406c-.297 0-.5.094-.718.406l-.172-.078Z"/><text font-family="sans-serif" font-size="14" textLength="71" x="697.5" y="445.847">Character</text><path style="stroke:#181818;stroke-width:.5" d="M669.5 457h101M669.5 465h101"/><g><rect fill="#F1F1F1" height="194.672" rx="2.5" ry="2.5" style="stroke:#181818;stroke-width:.5" width="315" x="264.5" y="7"/><circle cx="346.75" cy="23" fill="#ADD1B2" style="stroke:#181818;stroke-width:1" r="11"/><path d="M349.094 18.672c-.938-.438-1.531-.578-2.406-.578-2.625 0-4.625 2.078-4.625 4.797v1.125c0 2.578 2.109 4.468 5 4.468 1.218 0 2.375-.297 3.125-.843.578-.407.906-.86.906-1.25a.864.864 0 0 0-.86-.844.831.831 0 0 0-.609.265c-.453.485-.453.485-.64.579-.423.265-1.11.39-1.876.39-2.046 0-3.343-1.093-3.343-2.797v-1.093c0-1.782 1.25-3.094 2.984-3.094.578 0 1.188.156 1.656.406.485.281.656.5.75.906.063.407.094.532.235.657.14.14.375.25.593.25a.92.92 0 0 0 .704-.36c.109-.156.14-.343.14-.765v-1.422c0-.438-.015-.563-.11-.719a.838.838 0 0 0-.734-.406c-.296 0-.5.093-.718.406l-.172-.078Z"/><text font-family="sans-serif" font-size="14" textLength="142" x="367.25" y="27.847">InventoryController</text><path style="stroke:#181818;stroke-width:.5" d="M265.5 39h313"/><path fill="none" style="stroke:#c82930;stroke-width:1" d="M272.5 49.648h6v6h-6z"/><text font-family="sans-serif" font-size="14" textLength="126" x="284.5" y="55.995">Character _owner</text><circle cx="275.5" cy="68.945" fill="none" style="stroke:#038048;stroke-width:1" r="3"/><text font-family="sans-serif" font-size="14" textLength="224" x="284.5" y="72.292">Inventory Inventroy «readonly»</text><circle cx="275.5" cy="85.242" fill="none" style="stroke:#038048;stroke-width:1" r="3"/><text font-family="sans-serif" font-size="14" textLength="198" x="284.5" y="88.589">Action OnInventoryCreated</text><path style="stroke:#181818;stroke-width:.5" d="M265.5 95.891h313"/><path fill="#F24D5C" style="stroke:#c82930;stroke-width:1" d="M272.5 106.539h6v6h-6z"/><text font-family="sans-serif" font-size="14" textLength="210" x="284.5" y="112.886">PickupItem(Items.Item item)</text><path fill="#F24D5C" style="stroke:#c82930;stroke-width:1" d="M272.5 122.836h6v6h-6z"/><text font-family="sans-serif" font-size="14" textLength="289" x="284.5" y="129.183">SelectItem(int viewId, int inputInvIndex)</text><path fill="#F24D5C" style="stroke:#c82930;stroke-width:1" d="M272.5 139.133h6v6h-6z"/><text font-family="sans-serif" font-size="14" textLength="219" x="284.5" y="145.48">AddItem(Items.Item newItem)</text><path fill="#F24D5C" style="stroke:#c82930;stroke-width:1" d="M272.5 155.43h6v6h-6z"/><text font-family="sans-serif" font-size="14" textLength="158" x="284.5" y="161.776">RemoveCurrentItem()</text><circle cx="275.5" cy="174.727" fill="#84BE84" style="stroke:#038048;stroke-width:1" r="3"/><text font-family="sans-serif" font-size="14" textLength="116" x="284.5" y="178.073">ClearInventory()</text><path fill="#F24D5C" style="stroke:#c82930;stroke-width:1" d="M272.5 188.023h6v6h-6z"/><text font-family="sans-serif" font-size="14" textLength="287" x="284.5" y="194.37">RPC_SelectItem(int viewId, int inputVal)</text></g><g><rect fill="#F1F1F1" height="48" rx="2.5" ry="2.5" style="stroke:#181818;stroke-width:.5" width="168" x="7" y="425"/><circle cx="22" cy="441" fill="#ADD1B2" style="stroke:#181818;stroke-width:1" r="11"/><path d="M24.344 436.672c-.938-.438-1.532-.578-2.407-.578-2.625 0-4.625 2.078-4.625 4.797v1.125c0 2.578 2.11 4.468 5 4.468 1.22 0 2.375-.296 3.125-.843.579-.407.907-.86.907-1.25a.864.864 0 0 0-.86-.844.831.831 0 0 0-.609.265c-.453.485-.453.485-.64.579-.422.265-1.11.39-1.876.39-2.047 0-3.343-1.094-3.343-2.797v-1.093c0-1.782 1.25-3.094 2.984-3.094.578 0 1.188.156 1.656.406.485.281.657.5.75.906.063.407.094.532.235.657.14.14.375.25.593.25a.92.92 0 0 0 .703-.36c.11-.156.141-.344.141-.765v-1.422c0-.438-.015-.563-.11-.719a.838.838 0 0 0-.734-.406c-.297 0-.5.094-.718.406l-.172-.078Z"/><text font-family="sans-serif" font-size="14" textLength="136" x="36" y="445.847">MonoBehaviourPun</text><path style="stroke:#181818;stroke-width:.5" d="M8 457h166M8 465h166"/></g><g><rect fill="#F1F1F1" height="373.938" rx="2.5" ry="2.5" style="stroke:#181818;stroke-width:.5" width="423" x="210.5" y="262"/><circle cx="383.25" cy="278" fill="#ADD1B2" style="stroke:#181818;stroke-width:1" r="11"/><path d="M385.594 273.672c-.938-.438-1.531-.578-2.406-.578-2.625 0-4.625 2.078-4.625 4.797v1.125c0 2.578 2.109 4.468 5 4.468 1.218 0 2.375-.296 3.125-.843.578-.407.906-.86.906-1.25a.864.864 0 0 0-.86-.844.831.831 0 0 0-.609.265c-.453.485-.453.485-.64.579-.423.265-1.11.39-1.876.39-2.046 0-3.343-1.094-3.343-2.797v-1.093c0-1.782 1.25-3.094 2.984-3.094.578 0 1.188.156 1.656.406.485.281.656.5.75.906.063.407.094.532.235.657.14.14.375.25.593.25a.92.92 0 0 0 .704-.36c.109-.156.14-.344.14-.765v-1.422c0-.438-.015-.563-.11-.719a.838.838 0 0 0-.734-.406c-.296 0-.5.094-.718.406l-.172-.078Z"/><text font-family="sans-serif" font-size="14" textLength="69" x="403.75" y="282.847">Inventory</text><path style="stroke:#181818;stroke-width:.5" d="M211.5 294h421"/><path fill="none" style="stroke:#c82930;stroke-width:1" d="M218.5 304.648h6v6h-6z"/><text font-family="sans-serif" font-size="14" textLength="397" x="230.5" y="310.995">Dictionary&lt;int, Item&gt; _storeItemDictionary «readonly»</text><circle cx="221.5" cy="323.945" fill="none" style="stroke:#038048;stroke-width:1" r="3"/><text font-family="sans-serif" font-size="14" textLength="156" x="230.5" y="327.292">int SelectedSlotIndex</text><path fill="none" style="stroke:#c82930;stroke-width:1" d="M218.5 337.242h6v6h-6z"/><text font-family="sans-serif" font-size="14" textLength="118" x="230.5" y="343.589">int _emptyIndex</text><circle cx="221.5" cy="356.539" fill="none" style="stroke:#038048;stroke-width:1" r="3"/><text font-family="sans-serif" font-size="14" textLength="222" x="230.5" y="359.886">Action&lt;int, Item&gt; OnAddItem;</text><circle cx="221.5" cy="372.836" fill="none" style="stroke:#038048;stroke-width:1" r="3"/><text font-family="sans-serif" font-size="14" textLength="211" x="230.5" y="376.183">Action&lt;int&gt; OnRemoveItem;</text><circle cx="221.5" cy="389.133" fill="none" style="stroke:#038048;stroke-width:1" r="3"/><text font-family="sans-serif" font-size="14" textLength="208" x="230.5" y="392.479">Action&lt;int&gt; OnReleaseItem;</text><circle cx="221.5" cy="405.43" fill="none" style="stroke:#038048;stroke-width:1" r="3"/><text font-family="sans-serif" font-size="14" textLength="198" x="230.5" y="408.776">Action&lt;int&gt; OnSelectItem;</text><path style="stroke:#181818;stroke-width:.5" d="M211.5 416.078h421"/><circle cx="221.5" cy="429.727" fill="#84BE84" style="stroke:#038048;stroke-width:1" r="3"/><text font-family="sans-serif" font-size="14" textLength="260" x="230.5" y="433.073">Inventory(int maxInventorySize = 5)</text><path fill="#F24D5C" style="stroke:#c82930;stroke-width:1" d="M218.5 443.023h6v6h-6z"/><text font-family="sans-serif" font-size="14" textLength="246" x="230.5" y="449.37">SetInventoryMaxSize(int maxSize)</text><circle cx="221.5" cy="462.32" fill="#84BE84" style="stroke:#038048;stroke-width:1" r="3"/><text font-family="sans-serif" font-size="14" textLength="173" x="230.5" y="465.667">AddItem(Item newItem)</text><circle cx="221.5" cy="478.617" fill="#84BE84" style="stroke:#038048;stroke-width:1" r="3"/><text font-family="sans-serif" font-size="14" textLength="103" x="230.5" y="481.964">RemoveItem()</text><circle cx="221.5" cy="494.914" fill="#84BE84" style="stroke:#038048;stroke-width:1" r="3"/><text font-family="sans-serif" font-size="14" textLength="173" x="230.5" y="498.261">RemoveItem(int slotNo)</text><circle cx="221.5" cy="511.211" fill="#84BE84" style="stroke:#038048;stroke-width:1" r="3"/><text font-family="sans-serif" font-size="14" textLength="153" x="230.5" y="514.558">SelectItem(int index)</text><circle cx="221.5" cy="527.508" fill="#84BE84" style="stroke:#038048;stroke-width:1" r="3"/><text font-family="sans-serif" font-size="14" textLength="179" x="230.5" y="530.855">Item GetItem(int slotNo)</text><path fill="#F24D5C" style="stroke:#c82930;stroke-width:1" d="M218.5 540.805h6v6h-6z"/><text font-family="sans-serif" font-size="14" textLength="196" x="230.5" y="547.151">FindEmptyInventoryIndex()</text><path fill="#F24D5C" style="stroke:#c82930;stroke-width:1" d="M218.5 557.102h6v6h-6z"/><text font-family="sans-serif" font-size="14" textLength="204" x="230.5" y="563.448">int GetExistInventoryIndex()</text><circle cx="221.5" cy="576.398" fill="#84BE84" style="stroke:#038048;stroke-width:1" r="3"/><text font-family="sans-serif" font-size="14" textLength="81" x="230.5" y="579.745">bool IsFull()</text><circle cx="221.5" cy="592.695" fill="#84BE84" style="stroke:#038048;stroke-width:1" r="3"/><text font-family="sans-serif" font-size="14" textLength="105" x="230.5" y="596.042">bool IsEmpty()</text><circle cx="221.5" cy="608.992" fill="#84BE84" style="stroke:#038048;stroke-width:1" r="3"/><text font-family="sans-serif" font-size="14" textLength="114" x="230.5" y="612.339">Item[] ToArray()</text><circle cx="221.5" cy="625.289" fill="#84BE84" style="stroke:#038048;stroke-width:1" r="3"/><text font-family="sans-serif" font-size="14" textLength="104" x="230.5" y="628.636">int GetCount()</text></g><g><path d="M579.672 193.881C605.983 213.741 631.136 236.577 651 262c37.646 48.181 56.262 118.986 64.137 157.866" fill="none" style="stroke:#181818;stroke-width:1"/><path fill="#181818" style="stroke:#181818;stroke-width:1" d="m716.133 424.905 2.178-9.605-3.148 4.7-4.7-3.148 5.67 8.053z"/></g><g fill="none"><path d="M264.306 198.574C238.748 217.639 213.861 238.989 193 262c-39.164 43.199-68.9 104.109-85.889 144.299M113.534 409.085l-14.028 15.881 1.063-21.163 12.965 5.282z" style="stroke:#181818;stroke-width:1"/></g><g><path d="M422 202.273v54.342" fill="none" style="stroke:#181818;stroke-width:1"/><path fill="#181818" style="stroke:#181818;stroke-width:1" d="m422 261.91 4-9-4 4-4-4 4 9z"/></g></svg>